<svg xmlns="http://www.w3.org/2000/svg" xmlns:xlink="http://www.w3.org/1999/xlink" xml:space="preserve" style="enable-background:new 0 0 1080 723.2" viewBox="0 0 1080 723.2"><style>.st0{fill:#ff781d;stroke:#1d1d1b;stroke-width:.5;stroke-miterlimit:10}.st1{fill:none}.st2{fill:#fff}.st3,.st4{fill:#fff;stroke:#221e20;stroke-width:.5;stroke-miterlimit:10}.st4{fill:#000;stroke:#1d1d1b}.st5{opacity:.4;fill:none;stroke:#fff;stroke-linecap:round;stroke-linejoin:round;stroke-dasharray:.8656}.st5,.st6,.st7{stroke-width:.5;stroke-miterlimit:10}.st6{opacity:.4;fill-rule:evenodd;clip-rule:evenodd;fill:none;stroke:#fff;stroke-linecap:round;stroke-linejoin:round;stroke-dasharray:.8656}.st7{fill:#fff;stroke:#1d1d1b}.st8{fill-rule:evenodd;clip-rule:evenodd;fill:#fff}.st9{fill:#c26cff}.st10{fill:#ff0d0d}.st11{fill:#0a6f47;stroke:#1d1d1b;stroke-width:.5;stroke-miterlimit:10}.st14{fill:#fff915}.st17{fill:#52ff5a}.st18{fill:#f75fff;stroke:#000;stroke-width:.5;stroke-miterlimit:10}</style><g id="ZONES_00000058569629787420984180000006680146158729060764_"><path id="POCHES_x5F_BACK" d="M906 551.7c-3.9 4.7-8.5 8.9-14.6 10.4-27.4 7.1-68.6 8.1-85.5 8.1-17.1 0-58.5-1-86.6-8.1-6.1-1.5-10.8-5.7-14.8-10.4l23.4-115 155.6.9L906 551.7z" class="st0"/><g id="LOGO_x5F_ZEROD_x5F_BACK"><path d="m818.4 524.2-.9 6.4c.4 0 .4-.3.5-.7 0-.2.5-3.5.7-4.8.1-.5.2-.9-.3-.9zM811.2 530.3c-.1.4-.1.8-.4 1-.2.1-.7.1-.8-.1-.1-.1-.1-.5 0-.8 0-.4.1-.7.1-1.1l-2.1 2.3c.4.8 1.4 1.2 2.6 1.1 1.3-.1 2.2-.6 2.7-1.7.2-.5.3-1.2.5-1.9.1-.7.6-3.8.6-4.6l-2.6 3c-.3.9-.5 1.8-.6 2.8zM803.9 526.1h.5c.1-.6.2-1.7.2-1.7h-.5l-.2 1.7zM811.4 523.4c.1 0 .4 0 .5.1.2.2 0 1.2 0 1.7l2-2.2c-.5-.7-1.3-1-2.5-.9-.3 0-.6.1-.9.2-.8.3-1.4.8-1.8 1.5-.2.5-.4 1.2-.4 1.9-.2 1.4-.4 2.7-.5 4.1v.3l2.7-3c.1-.5.2-1.1.2-1.6.1-.5.1-1.5.4-1.8 0-.2.2-.3.3-.3z" class="st1"/><path d="M820.9 522.8c-.5-.4-1.3-.4-2.2-.4H816l-1.4 10h2.7c.9 0 1.8 0 2.4-.3.6-.4.9-1 1-2 .3-1.8.5-3.6.7-5.4.2-.9 0-1.5-.5-1.9zm-1.8 2.9c-.2 1.1-.3 2.4-.5 3.5-.1.6-.1 1.3-.4 1.6-.2.3-.8.2-1.2.3l1-7.4c.5 0 1 0 1.2.3.1.4-.1 1.2-.1 1.7z" class="st1"/><path d="M811.1 524.7c0-.3.1-.6.2-.8h.2c.1.1 0 .2 0 .4 0 .5-.3 2.1-.3 2.4l3.2-3.6c-.1-.1-.1-.3-.2-.4-.5-.6-1.2-.9-2.2-1h-.6c-1.4.1-2.4.7-3 1.7-.3.5-.4 1.2-.6 1.9-.1.7-.2 1.5-.3 2.2-.1 1-.3 2.2-.3 3.1v.1c0 .2 0 .3.1.5l3.6-4c-.1-.3.1-2 .2-2.5zm-.8 2.3-2.7 3v-.3c.1-1.4.4-2.7.5-4.1.1-.7.2-1.4.4-1.9.4-.8 1-1.3 1.8-1.5.3-.1.6-.1.9-.2 1.2-.1 2.1.3 2.5.9l-2 2.2c.1-.5.3-1.5 0-1.7-.1-.1-.4-.1-.5-.1-.2 0-.4.1-.5.2-.3.3-.3 1.3-.4 1.8.2.6.1 1.2 0 1.7zM814.7 524c0-.2 0-.4-.1-.6l-3.5 3.9s-.3 2.2-.4 2.8c0 .1 0 .3-.1.4 0 .1-.1.3-.2.3s-.1-.2-.1-.3c0-.6.3-2.4.3-2.7l-3.3 3.7c.1.1.1.3.2.4.4.7 1.2 1.1 2.3 1.1h.5c1.4-.1 2.4-.7 3-1.6.3-.5.5-1.2.6-1.9.1-.7.5-3.7.6-4.4.2-.3.2-.7.2-1.1zm-1.1 5.2c-.1.7-.2 1.4-.5 1.9-.5 1-1.4 1.6-2.7 1.7-1.2.1-2.2-.3-2.6-1.1l2.1-2.3c0 .4-.1.7-.1 1.1 0 .3-.1.7 0 .8.1.2.6.2.8.1.3-.1.3-.5.4-1 .2-1 .3-1.9.4-2.8l2.6-3c.2.7-.2 3.9-.4 4.6zM795.1 524.3l.3-2.4h-5.1l-.3 2.4h1.8c-1 2.3-2 4.5-3 6.7l-.2 1.8h5.4l.3-2.4h-2c.8-1.8 2.8-6.1 2.8-6.1zM821.2 522.4c-.6-.3-1.4-.4-2.3-.4h-3.3s-1 7.3-1.5 10.9h3c1 0 2 0 2.8-.3.4-.2.6-.4.8-.8.2-.3.3-.8.4-1.3.2-1 .3-2.1.4-3 .1-1 .3-2.1.4-3 .1-1.1-.1-1.7-.7-2.1zm.3 2.3c-.2 1.8-.5 3.6-.7 5.4-.1.9-.4 1.6-1 2-.6.4-1.5.3-2.4.3h-2.7l1.4-10h2.7c.9 0 1.7.1 2.2.4.4.4.6 1 .5 1.9z" class="st2"/><path d="m818 523.7-1 7.4c.4 0 .9 0 1.2-.3.3-.3.3-1 .4-1.6.2-1.2.3-2.4.5-3.5.1-.5.3-1.3.1-1.7-.1-.3-.7-.3-1.2-.3zm.7 1.3c-.2 1.4-.6 4.6-.7 4.8-.1.4-.1.7-.5.7l.9-6.4c.5.1.4.5.3.9zM798.8 527.1l1.6-.8.6-4.4h-4.9l-.3 2.4h1.8l-.2 1.7h-1.7l-.3 2.2h1.7l-.3 2.1h-2l-.3 2.4h5.1l.7-4.8-1.5-.8zM807.2 526.4c.1-1 .3-2.1.4-3.1.1-.4-.3-1.3-1.2-1.4h-5l-1.5 10.9h3l.6-4.5h.5c-.1.6-.5 3.7-.6 4.5h2.8c.2-1.6.5-3.2.7-4.8l-1.4-.9 1.7-.7zm-2.8-.3h-.5l.2-1.7h.5c0-.1-.1 1.1-.2 1.7z" class="st2"/></g><g id="decoration-bandes-reflechissantes"><path d="M787.67 551.343v-12.3h32.3v12.3zM826.795 551.268v-12.3h3.2v12.3zM820.64 551.313v-12.3h5.5v12.3zM830.815 551.288v-12.3h1.8v12.3zM833.428 551.301v-12.3h1.2v12.3zM777.546 551.319v-12.3h3.2v12.3zM781.5 551.273v-12.3h5.5v12.3zM774.926 551.299v-12.3h1.8v12.3zM772.912 551.285v-12.3h1.2v12.3z" class="st2"/></g><path id="FLANC_x5F_DROIT_x5F_BACK" d="M1010.8 280.7 923 257.5s-38.5 165.6-40.2 180.3c-1.7 14.2 21.6 107.4 23.1 113.9 7-8.3 10.9-18 16.2-19.6-2.2-11.1-7.4-24.3-7.9-35.6-.7-17.2-7.7-77.3-1.2-96.7 3.1-9.3 5.6-40.9 14.4-61.7v-.1c.3-.7.6-1.3.8-1.9.3-.6.8-1.9.8-1.9 8-21.2 5.4-47.4 10.1-47.4 3.5 0 24.3 29.5 39.8 37.5 5.2 2.7 12.1 6.4 17.5 9.3l14.4-52.9z" class="st3"/><path id="FLANC_x5F_GAUCHE_x5F_BACK" d="m599.4 281.5 87.7-23.2s38.5 165.6 40.2 180.3c1.7 14.2-21 107.4-22.5 113.9-7-8.3-11.5-18.8-16.8-20.3 2.2-11.1 7.4-23.6 7.9-34.9.7-17.2 7.7-77.3 1.2-96.7-3.1-9.3-5.6-40.9-14.4-61.7v-.1c-.3-.7-.6-1.3-.8-1.9-.3-.6-.8-1.9-.8-1.9-8-21.2-5.4-48.1-10.1-48.1-3.5 0-25.1 29.9-40.6 37.9-5.2 2.7-11 5.8-16.5 8.8l-14.5-52.1z" class="st3"/><path id="POCHES_x5F_FRONT" d="M163.3 533.6c5.6 7.5 13.2 15.1 20.6 17 30.5 7.8 75.9 8.4 89 8.4 9.2 0 56.9-.4 87.9-8.4 7.4-1.9 14.6-9.5 19.9-17 .9-1.3 1.9-1.9 2.8-2.2l.4-3.3-117.9-14-105.8 14.4v2.8c1 .4 2.1 1 3.1 2.3z" class="st0"/><path id="BUSTE_x5F_FRONT" d="M371.3 531.6c-32.6-1.8-83.7-9.3-99.6-9.3-15.8 0-66 8.5-99.3 10.2L196 326.8c.3-2.6-.3-5.2-1.7-7.3L154.6 259l62.5-77.6s28.3 29.8 54.6 29.6 55.9-31.3 55.9-31.3l61.4 78.8-40.2 61.8c-1.3 2-1.9 4.5-1.6 6.9l24.1 204.4z" class="st4"/><path id="BUSTE_x5F_BACK" d="m687.1 258.2 73.2-90.2 1.9.3c27.9 6.9 49.9 6.9 87.5.7l2.9-1.3 70.5 90.6-39.6 179.5-156.2.8-40.2-180.4z" class="st4"/><g id="decorations-coutures"><path id="decoration_00000082367168533350684800000002489251894793272730_" d="M274.8 195v327.6" class="st5"/><g id="decoration_00000175302967459485679000000014690724070346628739_"><path d="m157.1 522.9 111.4-11.8h6.3l112.1 11.8" class="st6"/><path d="m158.1 519.4 110.4-11.6h6.3l111.1 11.6" class="st6"/><path d="M268.7 195v327.6M761 437l-14.4 129.8M883.5 438.6H727.9M849.3 437.7l14.6 129.2M728.4 441.1H883.5M758.7 437l-14.4 129.8M851.6 437.5l14.6 129.4M690.8 520.9c5.3 1.5 7.3 10.1 14.3 18.3 0-.1 1.7 2 1.7 1.8 3.9 4.6 7 6.4 12.9 7.9 28 7.1 69.5 8.1 86.6 8.1 16.9 0 58-1.1 85.5-8.1 6.1-1.6 10.7-5.7 14.6-10.4l.8-.9c6.1-7 8.5-14.2 12.3-17.1" class="st5"/><path d="M691.4 518.8c5.8 3.2 7.1 8.6 9.9 12.4 0-.1 3.9 5.8 3.9 5.7 3.9 4.6 8.6 8.6 14.5 10.1 28 7.1 69.5 8.1 86.6 8.1 16.9 0 58-1.1 85.5-8.1 6.1-1.6 9.4-4.8 13.2-9.5l4.1-5.4c6.8-8.2 4.8-9.7 9.9-13.1" class="st5"/></g><path id="decoration_00000165222377853937541270000000441942399533492127_" d="M271.5 195.4v327.5h.8V195.4" class="st7"/></g><path id="FLANC_x5F_DROITE_x5F_FRONT" d="M196.4 322.9c-2.5-6.8-41.8-63.8-41.8-63.8l-84.8 31.8 4.8 46.7c7-3.9 15.3-8.4 22.5-12.1 15.5-8 37-37.9 40.5-37.9 4.6 0 2.1 26.9 10.1 48.1 0 0 .5 1.3.8 1.9.3.6.6 1.3.8 1.9v.1c8.7 20.8 11.3 52.4 14.3 61.6 6.5 19.4-.5 79.5-1.2 96.7-.5 11.2-5.7 23.7-7.9 34.7v.1c4.9.2 11 .1 17.7-.2 4-23.4 26.6-203.2 24.2-209.6z" class="st3"/><path id="FLANC_x5F_GAUCHE_x5F_FRONT" d="M346.7 323.4c2.5-6.8 42.4-65.3 42.4-65.3l84.8 31.8-4.8 46.7c-7-3.9-15.3-8.4-22.5-12.1-15.5-8-37-37.9-40.5-37.9-4.6 0-2.1 26.9-10.1 48.1 0 0-.5 1.3-.8 1.9-.3.6-.6 1.3-.8 1.9v.1c-8.7 20.8-11.3 52.4-14.3 61.6-6.5 19.4.5 79.5 1.2 96.7.5 11.2 5.7 23.7 7.9 34.7v.1c-4.9.2-11 .1-17.7-.2-4-23.3-27.2-201.6-24.8-208.1z" class="st3"/><g id="ZEROD_x5F_LOGO_x5F_FRONT"><path d="M234.2 225.9c0-.3.3-1.9.3-2.5 0-.3.1-.6.2-.8h.2c.1.1 0 .2 0 .4 0 .5-.3 2.1-.3 2.4l3.2-3.6c-.1-.1-.1-.3-.2-.4-.5-.6-1.2-.9-2.2-1h-.6c-1.4.1-2.4.7-3 1.7-.3.5-.4 1.2-.6 1.9-.1.7-.2 1.5-.3 2.2-.1 1-.3 2.2-.3 3.1v.1c0 .2 0 .3.1.5l3.5-4zm-3.1 2.6c.1-1.4.4-2.7.5-4.1.1-.7.2-1.4.4-1.9.4-.8 1-1.3 1.8-1.5.3-.1.6-.1.9-.2 1.2-.1 2.1.3 2.5.9l-2 2.2c.1-.5.3-1.5 0-1.7-.1-.1-.4-.1-.5-.1-.2 0-.4.1-.5.2-.3.3-.3 1.3-.4 1.8-.1.5-.2 1.1-.2 1.6l-2.7 3c.2 0 .2-.1.2-.2zM238 223.9c0-.4.1-.8.1-1.2 0-.2 0-.4-.1-.6l-3.5 3.9s-.3 2.2-.4 2.8c0 .1 0 .3-.1.4 0 .1-.1.3-.2.3s-.1-.2-.1-.3c0-.6.3-2.4.3-2.7l-3.3 3.7c.1.1.1.3.2.4.4.7 1.2 1.1 2.3 1.1h.5c1.4-.1 2.4-.7 3-1.6.3-.5.5-1.2.6-1.9.3-.5.7-3.5.7-4.3zm-1 4c-.1.7-.2 1.4-.5 1.9-.5 1-1.4 1.6-2.7 1.7-1.2.1-2.2-.3-2.6-1.1l2.1-2.3c0 .4-.1.7-.1 1.1 0 .3-.1.7 0 .8.1.2.6.2.8.1.3-.1.3-.5.4-1 .2-1 .3-1.9.4-2.8l2.6-3c.2.8-.3 3.9-.4 4.6zM218.5 223.1l.3-2.4h-5.1l-.3 2.4h1.8c-1 2.3-2 4.5-3 6.7l-.2 1.8h5.4l.3-2.4h-2c.8-1.8 2.8-6.1 2.8-6.1zM244.5 221.2c-.6-.3-1.4-.4-2.3-.4h-3.3s-1 7.3-1.5 10.9h3c1 0 2 0 2.8-.3.4-.2.6-.4.8-.8.2-.3.3-.8.4-1.3.2-1 .3-2.1.4-3 .1-1 .3-2.1.4-3 .2-1.1 0-1.8-.7-2.1zm.4 2.3c-.2 1.8-.5 3.6-.7 5.4-.1.9-.4 1.6-1 2-.6.4-1.5.3-2.4.3h-2.7l1.4-10h2.7c.9 0 1.7.1 2.2.4.4.3.6 1 .5 1.9z" class="st8"/><path d="m241.4 222.5-1 7.4c.4 0 .9 0 1.2-.3.3-.3.3-1 .4-1.6.2-1.2.3-2.4.5-3.5.1-.5.3-1.3.1-1.7-.1-.3-.7-.3-1.2-.3zm.7 1.3c-.2 1.4-.6 4.6-.7 4.8-.1.4-.1.7-.5.7l.9-6.4c.5 0 .3.5.3.9zM222.2 225.9l1.6-.8.6-4.4h-4.9l-.3 2.4h1.8l-.2 1.7H219l-.3 2.2h1.7l-.3 2.1h-2l-.3 2.4h5.1l.7-4.8-1.4-.8zM231 222.1c.1-.4-.3-1.3-1.2-1.4h-5l-1.5 10.9h3l.6-4.5h.5c-.1.6-.5 3.7-.6 4.5h2.8c.2-1.6.5-3.2.7-4.8l-1.4-.9 1.6-.8c.3-1 .4-2 .5-3zm-3.2 2.7h-.5l.2-1.7h.5s-.1 1.2-.2 1.7z" class="st8"/></g><path id="BANDE_x5F_SUPERIEUR_x5F_FRONT" d="m347.5 343.4-1.2-10.5H196.8c-.4 3.5-.8 7-1.2 10.4 50.7.1 101.3.1 151.9.1z" class="st9"/><path id="BANDE_x5F_SUPERIEUR_x5F_BACK" d="M707.1 343.5c65.4-.3 130.8-.5 196.2-.8.7-3.3 1.5-6.6 2.2-9.9H704.7c.8 3.6 1.6 7.2 2.4 10.7z" class="st9"/><path id="BANDE_x5F_INFERIEUR_x5F_FRONT" d="M349 353.4c-.3-2.1-.5-4.3-.8-6.4-51.1 0-102.2 0-153.3.1-.2 2.1-.5 4.2-.7 6.3H349z" class="st10"/><path id="BANDE_x5F_INFERIEUR_x5F_BACK" d="M709.4 353.3h191.5c.5-2.1.9-4.2 1.4-6.3-64.8 0-129.5 0-194.3-.1.5 2.2 1 4.3 1.4 6.4z" class="st10"/><path id="EPAULE_x5F_DROITE_x5F_BACK" d="M1033.2 265.7c-4.3-3.8-8-6.5-10.7-8-11.5-6.1-11.7-11.3-20.5-24.6-9.5-14.2-25.8-27.2-41.4-29.9-7.4-1.2-20.1-12.9-25.1-16.8-5.1-4-21.3-9.3-37.3-14 0 0-19.7-5.5-26.4-7.2-2.2-.6-4.2-1.2-6-1.9l-.9.3c-2 1.5-6.4 2.8-12.4 4l-1.1.4 71.6 90.2 87.7 22.5 22.5-15z" class="st11"/><path id="EPAULE_x5F_GAUCHE_x5F_BACK" d="M578.5 265.7c4.3-3.8 8-6.5 10.7-8 11.5-6.1 10.6-11.5 19.4-24.7 9.5-14.2 26.9-27 42.4-29.8 7.4-1.2 20.1-12.9 25.1-16.8 5.1-4 21.3-9.3 37.3-14 0 0 19.7-5.5 26.4-7.2 2.2-.6 4.2-1.2 6-1.9l.9.3c2 1.5 6.4 2.8 12.4 4l1.1.4-73.2 90.2-87.7 23.2-20.8-15.7z" class="st11"/><g id="LOGO_x5F_EPAULE_x5F_BACK"><defs><path id="MASK_00000143599152904719014800000005478281024251228593_" d="M1033.2 265.7c-4.3-3.8-8-6.5-10.7-8-11.5-6.1-11.7-11.3-20.5-24.6-9.5-14.2-25.8-27.2-41.4-29.9-7.4-1.2-20.1-12.9-25.1-16.8-5.1-4-21.3-9.3-37.3-14 0 0-19.7-5.5-26.4-7.2-2.2-.6-4.2-1.2-6-1.9l-.9.3c-2 1.5-6.4 2.8-12.4 4l-1.1.4 71.6 90.2 87.7 22.5 22.5-15z"/></defs><clipPath id="MASK_00000080200983299071083480000000639287311240365737_"><use xlink:href="#MASK_00000143599152904719014800000005478281024251228593_" style="overflow:visible"/></clipPath><g id="LOGO_x5F_TCTM_00000063630639125966002120000008911987632677408159_" style="clip-path:url(#MASK_00000080200983299071083480000000639287311240365737_)"><path d="M991 251.4V251.7c0 .1-.1 0-.1 0-.1 0 0-.1 0-.1v-.1c-.1 0-.1.1-.1.2h-.2c-.3.4-.5.9-.6 1.3 0 .1.1 0 .2 0 .4.5.8 1.1 1.2 1.6h.1s.1.1.1.2.2.3.3.4c0 .1.1.1.1.2 0 0 .1.1.1.2h.1s.1.1.1.2h.1s.1.1.1.2l.1.1s.2.2.2.3l.5.5c.1 0 .1.1.2.1h.1s.1-.1.1 0-.1.2-.2.2H993.2c-.2-.1-.6-.4-.8-.6.1 0 0 .1 0 0l-.3-.3c-.1-.1-.1 0-.1-.1l-.1-.1-.1-.1-.1-.1s0-.1-.1-.1l-.1-.1s0-.1-.1-.1l-.3-.3c0 .1.1.1.1.2s.1.1.2.2c0 0 .1.1.1.2s.1.1.1.2c.2.3.5.5.8.7v.1c.1.1.3.2.3.1l.2.1c0 .1-.1.1-.1.1v.1h-.4c-.1 0-.1-.1-.1-.1-.1 0-.1-.1-.2-.1-.2-.1-.2-.1-.4-.3-.1 0-.1-.1-.2-.1l-.4-.4c-.7-.7-1.4-1.7-1.9-2.4-.1 0-.1.1-.1.1v1.5s.1.1 0 .1c0 .1.1 0 .1.1 0 0 0 .1-.1.1H988.8c-.1 0-.2-.1-.3-.1l.1.1c-.1 0-.2-.1-.2-.2l-.1-.1v-1.7c0-.1 0-.3.1-.5 0-.1 0-.2.1-.2 0-.1.1-.1.1-.2 0 0 0-.1.1-.2 0-.1 0-.1.1-.2 0-.1 0-.2.1-.2l.1-.1c.1-.3.3-.8.6-1l.1-.1.2-.1s.1 0 .1.1h.1l.1.1c.1 0 .2.1.3.2.1 0 .1.1.2.2s.2.1.2.2c.1.1.1.3.1.4v.1l-.2-.2v-.4c.1-.5.2-.3.2-.3m-1.4.4c0 .1 0 .1 0 0-.1.2-.1.3-.2.4-.1.2-.1.4-.2.6 0 .1-.1.1-.1.2v.1c0 .1-.1.3-.1.3V254.9s0 .1 0 0v-.4c0-.4 0-.8.1-1.3 0-.3.1-.6.2-.9v-.1c.1-.4.3-.9.6-1.3 0-.1.1-.1.1-.2.1-.1.1-.1.1-.2l.1-.1c-.2.1-.4.3-.5.5 0 .7-.1.8-.1.9m-.2 1.9s-.1 0 0 0c0 .1 0 .2-.1.2 0 .2-.1.4 0 .6 0 0 0 .1 0 0 0-.4.1-.8.2-1.2 0 0 0-.1-.1 0 0 .2-.1.3 0 .4-.1 0 0 0 0 0m.3-.1.1.2c0-.1 0-.2-.1-.2m.2-.1s-.1-.1 0-.2c0 0 .1-.1 0-.1-.1.1-.1.2 0 .3 0 0-.1.1 0 0m.2.1c-.1 0-.1-.1 0 0-.1 0 0 .1 0 0 0 .1-.1 0 0 0m-.6-.4c.1-.2.1-.4.1-.5 0 0 .1-.1 0-.1-.1.1-.1.2-.1.3 0 .1-.1.2 0 .3m.1-.7c-.1.1.1 0 0 0" class="st2"/><path d="M991.7 251.9c.1 0 .1 0 .2-.1h.1c.1 0 .1-.1.2-.1h.2c.1 0 .3.1.4.3.3.2.6.6.8 1l.1.1v.1c0 .1.1.1.1.2v.1l.1.1v.1s0 .1.1.1v.2c0 .1.1.1.1.2v.1l.1.1V255c-.1.2-.2.2-.3.3 0 .1-.1.2-.2.2 0 0 0 .1-.1.1h-.3c-.1 0-.1-.1-.2-.1s-.1-.1-.2-.1c-.1-.1-.3-.2-.4-.3 0 0-.2-.2-.2-.3 0 0-.1 0 0 0 0-.1-.2-.2-.2-.3v-.1s-.1 0-.1-.1v-.1c0-.1-.1-.2-.2-.3v-.2s0-.1-.1-.1l-.1-.3V252.7c-.2-.4-.1-.7.1-.8-.1 0-.1 0 0 0m1.4 2.8c0 .1 0 .1 0 0l.1.1c.1.1.2.1.3 0-.3-.1-.6-.3-.7-.5 0 0-.1 0-.1-.1l-.3-.3c-.1-.1-.1-.2-.2-.2l.5.5c.1.3.2.4.4.5m-.9-1.5c.3.5.7.9 1.2 1.3v-.1c0-.1 0-.1-.1-.2h-.1v-.1l-.1-.1v-.2c0-.1 0-.1-.1-.2 0-.1-.1-.1-.1-.2h-.1v-.1l-.1-.1s-.1 0-.1-.1v-.1c0-.1-.1-.1-.1-.1l-.1-.1v-.1l-.1-.1c-.1-.1-.2-.2-.3-.2-.1-.1-.1-.1-.2-.1-.1.3 0 .6.1.9.2-.1.2-.1.3 0m.4-.7.1.1c0-.1-.1-.2-.1-.1m-.6-.5c.1.1.1 0 0 0m.4.3s.1 0 0 0c0-.1 0-.1 0 0m-.2-.2s.2.2.2.1c-.1-.1-.3-.2-.2-.1" class="st2"/><path d="M993.9 252.9c0-.1-.1-.1-.1-.1-.3-.3-.5-.6-.7-.8 0 0 .1 0 .1.1l.3.3.1.1c.2.2.3.4.5.5-.1 0-.2-.1-.2-.1m-1.4-2.6c.1-.1.2-.1.3-.1.2.2.4.5.6.8l.1.1.1.1c.1 0 0 0 0-.1v-.1h-.1v-.1s-.1 0 0 0c0-.1-.1-.2-.1-.3v-.2h-.1s0-.1-.1-.2c0 0-.1-.2-.1-.3 0-.1 0-.1-.1-.2v-.5c.1-.1.2-.1.3-.2h.1c.4.3.7.6 1 .9l.1.1.4.4c.1.1.3.2.4.4h.1s.2.2.3.2c-.1 0 0 .2-.1.1h-.2l.1.1v.1c0 .1-.1.1-.2.1-.1-.1-.2-.2-.3-.2-.2-.1-.4-.3-.5-.4-.1 0-.1-.1-.2-.2-.1 0-.1-.1-.2-.2l-.1-.1-.1-.1-.1-.1s-.1-.2-.2-.2v.1c0 .1.1.2.1.3v.1c.1.1.1.2.2.4V251.1s0 .1.1.1v.2l.1.1v.1c0 .1.1.1.1.2v.1s0 .1.1.1v.2l.1.1v.1c0 .1 0 .1.1.2 0 0 0 .1.1.1v.1l.1.1v.1s0 .1.1.1c-.1.1 0 .1 0 .2s-.1 0-.2 0c0 .1 0 .2-.1.4-.1 0-.3 0-.4-.2l-.2-.2-.2-.2-.3-.3c-.3-.4-.7-.8-1-1.3 0 0-.1 0-.1-.1v-.1c-.1-.1-.2-.2-.2-.4.2-.6.3-.6.4-.6.1.1.1 0 0 0M998 255.9V256.2c0 .1-.1 0-.1 0-.1 0 0-.1 0-.1v-.1c-.1 0-.1.1-.1.2h-.2c-.3.4-.5.9-.6 1.3 0 .1.1 0 .2 0 .4.5.8 1.1 1.2 1.6h.1s.1.1.1.2.2.3.3.4c0 .1.1.1.1.2 0 0 .1.1.1.2h.1s.1.1.1.2h.1s.1.1.1.2l.1.1s.2.2.2.3l.5.5c.1 0 .1.1.2.1h.1s.1-.1.1 0-.1.2-.2.2H1000.2c-.2-.1-.6-.4-.8-.6.1 0 0 .1 0 0l-.3-.3c-.1-.1-.1 0-.1-.1l-.1-.1-.1-.1-.1-.1s0-.1-.1-.1l-.1-.1s0-.1-.1-.1l-.3-.3c0 .1.1.1.1.2s.1.1.2.2c0 0 .1.1.1.2s.1.1.1.2c.2.3.5.5.8.7v.1c.1.1.3.2.3.1l.2.1c0 .1-.1.1-.1.1v.1h-.4c-.1 0-.1-.1-.1-.1-.1 0-.1-.1-.2-.1-.2-.1-.2-.1-.4-.3-.1 0-.1-.1-.2-.1l-.4-.4c-.7-.7-1.4-1.7-1.9-2.4-.1 0-.1.1-.1.1v1.5s.1.1 0 .1c0 .1.1 0 .1.1 0 0 0 .1-.1.1H995.8c-.1 0-.2-.1-.3-.1l.1.1c-.1 0-.2-.1-.2-.2l-.1-.1v-1.7c0-.1 0-.3.1-.5 0-.1 0-.2.1-.2 0-.1.1-.1.1-.2 0 0 0-.1.1-.2 0-.1 0-.1.1-.2 0-.1 0-.2.1-.2l.1-.1c.1-.3.3-.8.6-1l.1-.1.2-.1s.1 0 .1.1h.1l.1.1c.1 0 .2.1.3.2.1 0 .1.1.2.2s.2.1.2.2c.1.1.1.3.1.4v.1l-.2-.2v-.4c.1-.4.3-.3.2-.3m-1.4.5c-.1.2-.1.3-.2.4-.1.2-.1.4-.2.6 0 .1-.1.1-.1.2v.1c0 .1-.1.3-.1.3V259.5s0 .1 0 0v-.4c0-.4 0-.8.1-1.3 0-.3.1-.6.2-.9v-.1c.1-.4.3-.9.6-1.3 0-.1.1-.1.1-.2.1-.1.1-.1.1-.2l.1-.1c-.2.1-.4.3-.5.5 0 .6 0 .8-.1.9m-.2 1.8c0 .1 0 .2-.1.2 0 .2-.1.4 0 .6 0 0 0 .1 0 0 0-.4.1-.8.2-1.2 0 0 0-.1-.1 0 .1.2 0 .3 0 .4m.4-.1.1.2c0-.1-.1-.2-.1-.2m.1 0s-.1-.1 0-.2c0 0 .1-.1 0-.1-.1.1-.1.1 0 .3 0-.1 0 0 0 0m.2 0s0-.1 0 0c0 0 0 .1 0 0 .1.1 0 .1 0 0m-.6-.4c.1-.2.1-.4.1-.5 0 0 .1-.1 0-.1-.1.1-.1.2-.1.3.1.1 0 .2 0 .3m.2-.7c-.1.1.1 0 0 0" class="st2"/><path d="M998.7 256.4c.1 0 .1 0 .2-.1h.1c.1 0 .1-.1.2-.1h.2c.1 0 .3.1.4.3.3.2.6.6.8 1l.1.1v.1c0 .1.1.1.1.2v.1l.1.1v.1s0 .1.1.1v.2c0 .1.1.1.1.2v.1l.1.1V259.5c-.1.2-.2.2-.3.3 0 .1-.1.2-.2.2 0 0 0 .1-.1.1h-.3c-.1 0-.1-.1-.2-.1s-.1-.1-.2-.1c-.1-.1-.3-.2-.4-.3 0 0-.2-.2-.2-.3 0 0-.1 0 0 0 0-.1-.2-.2-.2-.3v-.1s-.1 0-.1-.1v-.1c0-.1-.1-.2-.2-.3v-.2s0-.1-.1-.1l-.1-.3V257.2c-.1-.4 0-.7.1-.8 0 .1 0 0 0 0m1.4 2.9c.1 0 0 0 0 0l.1.1c.1.1.2.1.3 0-.3-.1-.6-.3-.7-.5 0 0-.1 0-.1-.1l-.3-.3c-.1-.1-.1-.2-.2-.2l.5.5c.1.2.3.3.4.5m-.8-1.6c.3.5.7.9 1.2 1.3v-.1c0-.1 0-.1-.1-.2h-.1v-.1l-.1-.1v-.2c0-.1 0-.1-.1-.2 0-.1-.1-.1-.1-.2h-.1v-.1l-.1-.1s-.1 0-.1-.1v-.1c0-.1-.1-.1-.1-.1l-.1-.1v-.1l-.1-.1c-.1-.1-.2-.2-.3-.2-.1-.1-.1-.1-.2-.1-.1.3 0 .6.1.9.1 0 .2-.1.3 0m.4-.7.1.1c-.1 0-.2-.2-.1-.1m-.7-.5c.2.1.2.1 0 0 .1 0 .1 0 0 0m.5.3s.1 0 0 0c0 0-.1-.1 0 0m-.2-.2s.2.2.2.1c-.1 0-.3-.2-.2-.1" class="st2"/><path d="M1000.9 257.4c0-.1-.1-.1-.1-.1-.3-.3-.5-.6-.7-.8 0 0 .1 0 .1.1l.3.3.1.1c.2.2.3.4.5.5 0 0-.1-.1-.2-.1m-1.3-2.6c.1-.1.2-.1.3-.1.2.2.4.5.6.8l.1.1.1.1c.1 0 0 0 0-.1v-.1h-.1v-.1s-.1 0 0 0c0-.1-.1-.2-.1-.3v-.2h-.1s0-.1-.1-.2c0 0-.1-.2-.1-.3 0-.1 0-.1-.1-.2v-.5c.1-.1.2-.1.3-.2h.1c.4.3.7.6 1 .9l.1.1.4.4c.1.1.3.2.4.4 0 0 .1 0 .1.1 0 0 .2.2.3.2-.1 0 0 .2-.1.1h-.2l.1.1v.1c0 .1-.1.1-.2.1-.1-.1-.2-.2-.3-.2-.2-.1-.4-.3-.5-.4-.1 0-.1-.1-.2-.2-.1 0-.1-.1-.2-.2l-.1-.1-.1-.1-.1-.1s-.1-.2-.2-.2v.1c0 .1.1.2.1.3v.1c.1.1.1.2.2.4V255.7s0 .1.1.1v.2l.1.1v.1c0 .1.1.1.1.2v.1s0 .1.1.1v.2l.1.1v.1c0 .1 0 .1.1.2 0 0 0 .1.1.1v.1l.1.1v.1s0 .1.1.1c-.1.1 0 .1 0 .2s-.1 0-.2 0c0 .1 0 .2-.1.4-.1 0-.3 0-.4-.2l-.2-.2-.2-.2-.3-.3c-.3-.4-.7-.8-1-1.3 0 0-.1 0-.1-.1v-.1c-.1-.1-.2-.2-.2-.4.2-.6.3-.6.4-.7 0 0 0 .1 0 0 .1.1 0 0 0 0M993.7 242v.1c0 .1 0 .3.1.3 0-.3-.1-.5-.1-.8 0-.3-.1-.6.1-.8h.1c.1 0 .3.1.3.1.1-.1.2-.2.3-.1.2.1-.1 0-.1.1.1.1.1 0 .2.1 0-.1.1 0 .1 0s0-.1.2 0c0 .1 0 .2.1.2 0 0-.2-.1-.2 0V242.4c0 .1 0 .1.1.2v.2c0 .1.1.3.1.4.1.2.2.5.3.8 0 .1.1.2.1.4v.1l.1.1v.2c0 .1.1.1.1.2v.1l.1.1c0 .1 0 .1.1.2l.1.1.1.1s0 .1.1.1v.1h.1c.1.1.2.2.2.4v.1l.1.1c0 .1.1.1.1.2v.1h.1s0 .1.1.1l.1.1c0 .1.2.3.4.4.2-.7.1-1.4-.1-2.1-.1-.3-.2-.7-.3-1-.1-.2-.2-.5-.3-.7 0-.1-.1-.2-.1-.2.1.1.2.1.2.1.1 0 .1-.1.2 0l.1.1v.1h.1v.1l.1.1v.1s.1 0 .1.1 0 .2.1.2c.1.3.3.6.4 1 0 .1 0 .2.1.3 0 0 0 .1.1.1v.1l.1.1v.1l.1.1v.1l.1.1v.1s0 .1.1.1v.1l.1.1v.7h.1v-1.2c0-.1-.1-.3-.1-.5 0-.1 0-.2-.1-.3-.1-.2-.1-.5-.2-.8-.1-.3-.3-.6-.3-.9-.1-.1-.1-.1-.1-.2s.1 0 .1-.1c.1 0 .1.2.2.2 0 0 0 .1.1.1 0 0 .1.2.1.3.2.4.3.8.4 1.3 0 .2.1.3.1.5 0 0 .1.1 0 .2v.5l.1.1v.1c0 .2 0 .5-.2.8-.1.2-.3.2-.5.3-.1.1-.1.2-.2.2-.1.1-.2 0-.3.1-.1 0-.2.1-.2 0-.1 0-.2-.1-.3-.1h-.1l-.1-.1c-.1-.1-.3-.2-.4-.3l-.2-.2c-.2-.2-.3-.4-.5-.6 0-.1-.1-.2-.2-.2 0 0-.1-.1-.1-.2l-.1-.1v-.1s-.1-.1-.1-.2c0 0 0-.1-.1-.1s0-.1-.1-.2c0 0-.1-.1-.1-.2s-.1-.1-.1-.2c0 0 0-.1-.1-.2l-.1-.1v-.2l-.1-.1v-.2c-.1-.1-.1-.2-.1-.3-.1-.2-.1-.5-.2-.7 0 0-.1-.1 0-.2 0 0-.1-.2-.1-.3V242c-.6.1-.6 0-.6 0 0-.1 0 0 0 0m.6-.8V242c0 .1 0 .2.1.4.1.3.1.5.2.7.1.4.2.7.4 1.1 0 .1.1.2.1.3l.1.1c0 .1 0 .2.1.3 0 .1.1.1.1.2v.1s0 .1.1.1v.2s0 .1.1.1v.1l.1.1v.1l.1.1h.1v.1c.1.1.1.2.2.4.1.1.1.2.1.2h.1v.1s.1 0 .1.1v.1c0 .1.1.1.1.1l.3.3c.1.1.2.1.2.1-.6-.5-1-1.2-1.3-1.7v-.1c0-.1-.1-.1-.1-.2v-.1l-.1-.1v-.1l-.1-.1c0-.1 0-.1-.1-.2 0-.1 0-.1-.1-.2 0-.1-.1-.1-.1-.2s-.1-.3-.1-.4c-.1-.3-.2-.5-.3-.8-.1-.1-.1-.4-.2-.5V242.5c0-.1-.1-.1-.1-.2V241.5c0-.2.1-.3-.1-.3.1 0 .1-.1 0 0M996 240.7c0-.1-.1-.1-.1-.2l-.2-.2v-.1s0-.1-.1-.1l-.1-.1-.1-.1v-.1h-.1s-.1-.1-.1-.2.1-.1.2-.1h.4c.1 0 .1.1.2.2h.1l.1.1v.1s.1 0 .1.1c.1.2.3.4.4.5.8 1 1.8 2.1 2.9 2.9.1 0 0-.1 0-.1 0-.1-.1-.2-.2-.4v-.1h-.1c0-.1-.1-.2-.2-.3l-.1-.1v-.2h-.1c0-.1 0-.1-.1-.1 0 0-.1-.2-.2-.2v-.1l-.1-.1v-.1c.1-.1.2-.1.3-.1.1.1.3.3.4.6l.1.1c.1 0 0 .1 0 .1h.5c0 .1.2.4.3.6.2.3.3.7-.1.8 0 .1-.1.2-.1.3-.1 0-.1.1-.2.1h-.1c-.1 0-.2.1-.3 0-.1 0-.1 0-.1-.1h-.1c-.4-.2-.7-.5-1-.7 0 0-.1 0-.1-.1l-.1-.1v-.1l-.1-.1c-.7-.7-2-2.3-2.4-3 .1 0 .6.7.6.8-.1-.1-.1 0 0 0 0 .1 0 .1 0 0m3.4 3c.1 0 .2 0 .1-.1-.1.1-.4-.1-.5 0 .1.1.2.1.3.1h.1M998.8 239.3l.1.1.1.1.3.3v.1l.1.1c0 .1.1 0 .1.1v.1l.1.1v.1c.1.1.3.2.5.4.1 0 0-.1 0-.1v-.1c0-.1-.1-.1-.1-.2v-.1c0-.1-.1-.1-.1-.2v-.1h-.1s-.1-.2-.1-.3l-.1-.1v-.1c0-.1-.1-.1-.1-.1v-.1l-.1-.1v-.1l-.1-.1v-.1l-.1-.1v-.1c-.1 0-.1-.1-.2-.2 0 0-.1 0-.1-.1v-.1h-.1c0-.1 0-.1-.1-.1 0 0-.1-.1-.1-.2 0 0 0-.1-.1-.2l-.1-.1c0-.1-.1-.2-.2-.3 0-.1.1-.2 0-.2.1-.1.2-.2.4-.2.1 0 .2.1.3.3h.1s.2.3.3.4c0 0 .1.1.2.1 0 .1.2.2.3.3l.2.2.2.2h.1c0 .1.3.3.4.5v.1l.3.3s.1 0 .1.1c0 0 .1.1.1.2l.2.2c.1 0 .2 0 .2.1-.1.1-.1.1-.3.1-.1 0-.2-.1-.2 0s.1 0 .2.1c-.1 0-.1.1-.1.1l-.1.1h-.2c-.2 0-.4-.3-.6-.4v.1c.1.3.5.7.2 1v.1c-.1 0-.2.1-.3.1-.1 0 0 .1-.1.3-.4.1-.9-.3-1.3-.6-.1 0-.1-.1-.2-.1v-.1l-.1-.1v-.1c-.1 0-.2-.1-.3-.2v-.2l-.3-.3s0-.1-.1-.1l-.2-.2-.1-.1c-.1-.2-.3-.4-.4-.6v-.1c0-.1.1-.1.1-.3.1 0 .2 0 .2-.1-.1-.1.1-.1.1-.1h.3c.5.4.7.7 1 1m1 1.6c.1.1.4.3.4.1-.1 0-.2-.1-.4-.1m1.5-.6c-.3-.2-.5-.4-.7-.6l-.2-.2v-.1l-.2-.1c-.1-.1-.2-.1 0 0l.7.7c.1 0 .4.3.4.3M1002.2 237.9c-.1 0-.2.1-.3.1 0 .1.2.2.3.3.1.1.2.2.3.2 0 .1-.1.2-.2.2h-.1s-.1.1-.2 0c0 .1.1 0 .1.1-.1.1-.1.2-.2.2h-.2c-.1 0-.4-.2-.5-.3-.2-.2-.4-.4-.7-.5 0 0 0-.1-.1-.1-.4-.3-.7-.7-1.1-1.1-.1-.1-.2-.1-.2-.2h-.1l-.3-.3-.2-.2h-.1c0-.1-.1-.2-.2-.3 0-.1-.1-.1-.2-.3 0 0-.1-.1-.1-.2-.1-.1-.1-.1-.1-.2-.2-.1-.3-.4-.4-.5-.1-.2-.3-.4-.4-.6.1-.1.1-.2.2-.1.1-.1 0-.1 0-.2.1 0 .3-.1.4 0l.2.2.3.3c.1.1.2.3.4.4h.1c0 .1.2.3.3.4.2.2.4.4.5.6h.1s.2.2.2.3h.1l.2.2s.1.1.1.2c.1 0 0-.1 0-.1 0-.1-.1-.3-.2-.4 0-.1 0-.1-.1-.2v-.1c0-.1-.1-.3-.1-.4.1 0 .1-.1.1 0h.1l.2-.2h.2v-.1H1000.6c.1 0 .2 0 .4.1.1 0 .2.1.4.2.4.3.7.7 1 1.1H1002.7s.1.3.2.3v.1h.1c.1.1.1.2.1.3v.1s.1 0 0 0c-.1.3-.3.3-.4.4-.1.2-.2.3-.3.3-.1 0 .1-.1.2-.2-.2 0-.3.2-.4.2m-1.5-1.5c0 .1.1.1.1.2v.2c0 .1.1.2.1.3v.1c.2.2.4.4.6.5l.1-.1h.2v-.1s.1 0 .2-.1c-.1-.3-.3-.6-.4-.8-.1-.1-.1-.2-.1-.2 0-.1-.1-.1-.2-.2l-.1-.1h-.1l-.1-.1v-.1c-.2-.1-.3-.2-.4-.4v.4c0 .2.1.4.1.5m-.1-.2V235.9c.1.1.1.3.1.4 0 .1 0 .2.1.4l.1.1c0 .1 0 .3.1.3-.1-.2-.1-.4-.2-.5-.1-.2-.2-.3-.2-.4m1.1.2v.1h.1l.1.1h.1s0 .1.1.1l.1.1.1.1h.1v.1c0 .1.1.1.1.2s.1.2 0 .1c-.2-.5-.6-.9-.9-1.3 0 0-.1 0 0 0-.2.1 0 .3.1.4-.1 0 0 0 0 0M1003.2 235.1c.1 0 .1.1.2.2h.1s.1.1.1.2h.1c0 .1.4.4.2.6h-.1c-.1-.1-.1 0-.2-.1v-.1c-.1-.1-.3-.3-.5-.4v-.1l-.1-.1v-.1c0-.1.1-.1.1-.2-.1 0 0 .1.1.1M1005.2 249.1c-.1.1-.1.1-.2.1H1004.7l-1-.2c-.2 0-.4-.1-.6-.2-.5-.1-1-.3-1.6-.5 0 .1.2.2.3.3.3.4.8.8 1.3 1.2.5.4 1 .9 1.5 1.3.1.1.2.2.4.3.1.1.3.3.5.4v.1s.1.1 0 .1c-.1.2-.2-.1-.3.2-.3-.1-.5-.4-.9-.6 0 .1.2.1.3.2 0 0 0 .1.1.1.2.1.4.2.4.3l.1.1v.1c0 .2-.1.1-.2 0l.1.1c-.1.2-.6-.2-.8-.4-.2-.2-.4-.3-.6-.5-.2-.2-.4-.3-.6-.5 0 0 0-.1-.1-.1l-.2-.2v-.1l-.1-.1s0-.1-.1-.1h-.1c0-.1-.3-.3-.4-.4l-.2-.2c-.1-.1-.2-.1-.2-.2-.1-.2-.3-.3-.4-.5h-.1c0-.1-.2-.2-.3-.3v-.1c0-.1-.1-.1-.2-.2h-.1c0-.1-.1-.2-.2-.2h-.1c0-.1-.2-.3-.3-.5 0-.1 0-.1-.1-.1.1 0 .1 0 .2.1 0-.1-.1-.2-.1-.3.1-.1.2-.1.3 0 0-.1 0-.1.1-.2.1 0 .1.1.2.1.3 0 .6 0 .9.1.8.2 1.7.4 2.5.6l-.6-1.2c-.1-.2-.2-.5-.3-.7l-.4-1.3c0-.1 0-.2-.1-.2v-.1c-.1-.2-.1-.4-.2-.5 0-.1-.1-.3-.1-.3l-.1-.2s-.2-.2-.2-.3l.1.1-.3-.5c0-.2.2 0 .2-.1-.1-.1-.1-.2-.1-.3 0-.1.1.1.1 0s.1 0 .1-.1v-.1h.1s-.1-.1 0-.1.1 0 .2.1.2.3.3.4c.3.4.6.8.9 1.1 1 1.2 2 2.1 3 3 .2.2.4.4.6.7v.1c.1.1-.1 0 0 .1s0 .2 0 .3v.1c0 .1-.1 0-.1.1v.2c-.1-.1-.2-.2-.3-.2 0 0-.1-.1-.2-.1l-.2-.2c-.1-.1-.2-.2-.3-.2-.1 0-.1-.1-.2-.2l-.2-.2c-.2-.1-.4-.4-.5-.5l-.2-.2c-.1-.1-.2-.2-.2-.3-.2-.2-.4-.5-.5-.5l-.2-.2-.3-.3-.1-.1v-.1c-.1-.1-.2-.3-.3-.3.1.1.1.2.2.2l.2.2c.1.1.1.2 0 .1-.1 0 .1.3.1.3.2.7.8 1.8 1.4 2.8 0 .1.1.1 0 .3l-.1.2v.1zm-1.2 2.3s.3.2.2.1c-.1-.1-.3-.2-.2-.1m-.2-.2s.1.1 0 0c0 0-.1 0 0 0m-1.3-.8s.1 0 0 0c0-.1-.1-.1 0 0m-2-2.1c.1.1.2.2.3.2v.1c.1.1.3.2.3.3l.1.1v.1c.1.1.1.1.2.1l.8.8c.1.1.2.3.3.2l-.5-.5c-.1-.1-.4-.3-.4-.4l-.1-.1c-.2-.2-.4-.5-.6-.7l-.1-.1v-.1c-.1-.1-.2-.1-.2-.3-.1 0-.2-.2-.2-.1 0 .2 0 .3.1.4m3.1 2.5.1.1-.1-.1m-.1-.1c.1.1.2.1.1 0-.1 0-.2-.1-.1 0m-.3-.2c.1.1.2.2.2.1-.1 0-.3-.3-.3-.2 0 0 .1 0 .1.1zm-.3-.3c.1.1.2.1.1 0 0 0-.1-.1-.1 0m-.1-.1s.1 0 0 0c0-.1-.1-.1 0 0m-.1-.2c0 .1.1.1 0 0 0 0-.1 0 0 0m2.4 1.5c0 .1 0 .1-.1 0s0 0 .1 0m-.4-.3c.1.1 0 .1 0 0-.1 0 0 0 0 0m-3.5-2.6c-.1-.1-.2-.2-.2-.3 0 0-.1 0 0 0 .1.1.1.2.2.3.1 0 .1 0 0 0m0-.9s.2.1.1 0c-.2 0-.4-.1-.5 0l.2.2s.1 0 .1-.1c0 0 0-.1.1-.1m3.9 1.8h-.2c-.1-.1-.3-.1-.4-.1-.1-.1-.3-.1-.4-.1-.5-.2-1-.2-1.5-.5h.2l.5.1H1003.6c.1 0 .1.1.2.1h.1l.1.1h.1l.1.1c.1 0 .3 0 .4.1.1 0 .2 0 .4.1l.1.1zm-2.6-5.2c.1.2.1.3.2.5s.2.3.2.5c.1.1.1.3.2.5l.1.1v.1l.1.1v.1c0 .1.1.2.1.2l.1.1v.2l.2.6c0 .1.1.2.1.2-.3-.6-.5-1.3-.7-1.9 0-.2-.1-.3-.2-.5 0-.2-.1-.3-.1-.5l-.3-.9c-.1.3 0 .5 0 .6m.5-.9c.1.1 0-.1 0-.1-.1-.1 0 .1 0 .1m.8.3c.1 0 .1.2 0 0 0 .1 0 0 0 0m-.7-.8c-.1-.1-.2-.1-.2-.3.2.3.5.7.7.8l.1.1.1.1s0 .1 0 0c-.3-.2-.5-.5-.7-.7m-.3-.5c0 .1.1.2 0 0 0 .1-.1 0 0 0M1005.7 240.8c.1 0 .1-.1.2 0h.1c.1.1.3.2.4.4.7.8 1.4 1.6 2.2 2.3.1.1.3.3.4.3-.1.1-.1.2-.2.2h-.1s-.1.1-.1.2c-.6-.3-1-.9-1.5-1.3.1.2.3.4.5.6.3.3.6.6 1 .7-.1 0-.1.1-.2.2-.2 0-.5-.2-.6-.4-.1 0 0 .1 0 .1v.1c0 .1.1.1.1.2l.1.2v.2l.1.1V245.2c0 .1 0 .1-.1.1h-.1s-.1 0-.1.1c0 0-.1 0-.1.1l-.1.1-.1.1c-.1.1-.2.1-.3.1h-.2c-.1 0-.1 0-.2-.1-.2 0-.5-.2-.7-.4-.1-.1-.2-.3-.3-.4h-.1v-.1h-.1v-.1c-.1-.1-.2-.2-.3-.4-.1-.1-.1-.2-.2-.4-.2-.3-.3-.7-.4-1 0-.1-.1-.1-.1-.2v-.4c0-.1.1-.1.2-.2l.1-.1.1-.1c0-.1.3 0 .4-.1 0-.1-.1-.2-.1-.3 0-.1-.1-.2-.1-.3.1.1.1.2.2.2 0-.1-.2-.2-.1-.3 0-.1 0 0 .1 0 .2.3.5.6.7.9.1 0 0-.1 0-.1-.3-.3-.6-.7-.9-1 .3 0 .4-.1.5-.1m.9 4.3-.1-.1c-.1-.1-.2-.2-.3-.2h-.1l-.1-.1c-.1-.1-.1-.2-.2-.2v.1c0 .2.2.4.3.5 0 .1.1.1.1.2.3-.2.4-.1.4-.2.1.2.2.3.3.2-.1 0-.2-.1-.3-.2.1.1.1.1 0 0m-.6-2.5c0 .1 0 .1.1.2l.1.1v.1l.1.1v.1c0 .1.1.1.1.2h.1v.1l.1.1v.1c0 .1.1.1.1.1v.1s0 .1.1.1v.1l.1.1c.1.1.2.3.3.4.2.2.4.5.7.7v-.3h-.1v-.1c0-.1-.1-.2-.1-.2v-.1h-.2v-.1c-.1-.2-.2-.3-.2-.4h-.1v-.1c0-.1-.1-.2-.1-.3v-.1c0-.1-.1-.1-.1-.1v-.1l-.2-.2c-.2-.2-.4-.5-.6-.7-.1 0 0 .1 0 .1-.3-.3-.3-.1-.2 0m-.3-.1c0 .1.1.2.1.3l.6 1.2c0-.1-.1-.1-.1-.1v-.2c0-.1-.1-.1-.1-.1v-.1l-.1-.1v-.1l-.1-.1v-.1c0-.1-.1-.1-.1-.2v-.1c0-.1-.1-.1 0-.1v-.3c-.4-.3-.2-.1-.2.1 0-.1 0-.1 0 0M1007.2 240c.1-.1.1 0 .2.1 0 0 .1.1.1.2 0 0 0 .1.1.1 0 0 .1.2.2.3.2.2.4.4.5.6.1.1.2.1.2.2v.1s.1 0 .1.1l.2.2c.1.1.3.2.5.4.1.1.2 0 .3.1-.1.1 0 .2-.1.2h-.1l-.1.1c-.1 0-.1-.1-.2 0 0 .1.2 0 .2.1s-.1.1-.2.1H1008.8s-.1 0-.2-.1c-.1 0-.3-.2-.5-.3-.1 0-.2-.2-.3-.3 0 0-.1 0-.1-.1l-.1-.1-.1-.1c0-.1-.1-.2-.2-.2l-.1-.1v-.1c-.1-.1-.1-.1-.1-.2 0 0-.1-.2-.2-.2l-.1-.2s-.1-.2-.2-.3c0-.1.1-.1 0-.2 0-.1.1-.1.2 0 .1 0-.1-.1 0-.1s.2-.1.2-.1c.2-.3.2-.2.2-.2m-.8-.4c-.2 0-.3-.1-.5-.3l-.2-.2c-.1-.1-.1-.1-.1-.2 0 0 0-.1.1-.1h.1v-.1c.1 0 .2.1.3 0 .2.2.4.5.7.7-.3.1-.4.1-.4.2M1006.7 238.2c0-.1-.1-.1-.1-.2l-.2-.2v-.1s0-.1-.1-.1l-.1-.1-.1-.1v-.1h-.1s-.1-.1-.1-.2.1-.1.2-.1h.4c.1 0 .1.1.2.2h.1l.1.1v.1s.1 0 .1.1c.1.2.3.4.4.5.8 1 1.8 2.1 2.9 2.9.1 0 0-.1 0-.1 0-.1-.1-.2-.2-.4v-.1h-.1c0-.1-.1-.2-.2-.3l-.1-.1v-.2h-.1c0-.1 0-.1-.1-.1 0 0-.1-.2-.2-.2v-.1l-.1-.1v-.1c.1-.1.2-.1.3-.1.1.1.3.3.4.6l.1.1c.1 0 0 .1 0 .1h.5c0 .1.2.4.3.6.2.3.3.7-.1.8 0 .1-.1.2-.1.3-.1 0-.1.1-.2.1h-.1c-.1 0-.2.1-.3 0-.1 0-.1 0-.1-.1h-.1c-.4-.2-.7-.5-1-.7 0 0-.1 0-.1-.1l-.1-.1v-.1l-.1-.1c-.7-.7-2-2.3-2.4-3 .1 0 .6.7.6.8-.1-.1-.1 0 0 0 0 .1 0 0 0 0m3.4 2.9c.1 0 .2 0 .1-.1-.1.1-.4-.1-.5 0 .1.1.2.1.3.1h.1M1007.9 236c0-.1-.1-.1-.1-.2l-.2-.2v-.1s0-.1-.1-.1l-.1-.1-.1-.1v-.1h-.1s-.1-.1-.1-.2.1-.1.2-.1H1007.6c.1 0 .1.1.2.2h.1l.1.1v.1s.1 0 .1.1c.1.2.3.4.4.5.8 1 1.8 2.1 2.9 2.9.1 0 0-.1 0-.1 0-.1-.1-.2-.2-.4v-.1h-.1c0-.1-.1-.2-.2-.3l-.1-.1v-.2h-.1c0-.1 0-.1-.1-.1 0 0-.1-.2-.2-.2v-.1l-.1-.1v-.1c.1-.1.2-.1.3-.1.1.1.3.3.4.6l.1.1c.1 0 0 .1 0 .1h.5c0 .1.2.4.3.6.2.3.3.7-.1.8 0 .1-.1.2-.1.3-.1 0-.1.1-.2.1h-.1c-.1 0-.2.1-.3 0-.1 0-.1 0-.1-.1h-.1c-.4-.2-.7-.5-1-.7 0 0-.1 0-.1-.1l-.1-.1v-.1l-.1-.1c-.7-.7-2-2.3-2.4-3 .1 0 .6.7.6.8-.1-.1 0 0 .1 0m3.3 2.9c.1 0 .2 0 .1-.1-.1.1-.4-.1-.5 0 .1.1.2.1.3.1h.1M1010.1 232.8c.1 0 .1 0 .2-.1h.1c.1 0 .1-.1.2-.1h.2c.2 0 .3.1.5.3.3.3.7.8 1 1.1 0 0 0 .1.1.1v.1c0 .1.1.1.1.2v.1s0 .1.1.1v.1l.1.1v.2c0 .1.1.1.1.2v.1l.1.1V236c-.1.2-.3.2-.3.3 0 .1-.1.2-.2.2l-.1.1h-.5c-.1 0-.2-.1-.3-.2-.1 0-.1-.1-.3-.2-.2-.1-.3-.2-.4-.4 0-.1-.2-.2-.3-.3h-.1c0-.1-.2-.2-.3-.3v-.1s-.1 0-.1-.1v-.1h-.1c-.1-.1-.1-.2-.2-.3v-.2l-.1-.1s-.1-.3-.1-.4V233.2c.3.1.4-.2.6-.4-.1.1 0 .1 0 0m1.6 3.4c.1.1.1.1.2.1.1.1.3.2.3.1-.3-.1-.7-.4-.8-.6 0 0-.1 0-.1-.1-.1-.1-.2-.2-.4-.3-.1-.1-.1-.2-.2-.2.2.2.3.4.5.6.2.1.3.2.5.4m-1-1.9c.4.5.9 1 1.4 1.5.1 0 0-.1 0-.1 0-.1-.1-.2-.1-.2h-.1v-.1s-.1 0-.1-.1v-.1l-.1-.1c0-.1-.1-.2-.1-.2 0-.1-.1-.2-.1-.2H1011.2v-.1l-.1-.1s-.1 0-.1-.1v-.1c-.1-.1-.1-.1-.1-.2l-.1-.1v-.1l-.1-.1-.3-.3c-.1-.1-.1-.2-.2-.2-.1.4 0 .7.1 1.1.2-.1.3-.2.4-.1m.5-.8c.1 0 .1.2.1.1l-.1-.1m-.8-.6c0 .1 0 .1 0 0 .2.2.2.1 0 0 .1.1.1.1 0 0m.5.4c.1 0 .2 0 0 0 .1 0 0-.1 0 0m-.2-.2s.3.2.2.1c-.1-.1-.3-.2-.2-.1M1014.2 233.4c-.1-.3-.3-.7-.5-1 0-.1-.1-.1-.1-.2v-.1s0-.1-.1-.1v-.1s-.1 0 0-.1c.1 0 .1 0 .2.1l.2.2.2.2c0 .1.1.1.1.1v.1c0 .1.1.1.1.1l.1.1s0 .1.1.1c0 0 0 .1.1.1 0 0 0 .1.1.1 0 0 .1.2.1.3l-.1.1s0 .1 0 0c0 .1-.1.1-.1.2h-.1s-.1 0-.2.1h-.3c-.4-.2-.7-.5-.9-.7l-.3-.3h-.1l-.3-.3h-.1l-.3-.3h-.1c0-.1-.2-.3-.3-.4-.2-.2-.4-.5-.5-.7-.1-.1-.2-.3-.3-.3 0 0 0 .1-.1.1v.1c0 .1-.1.3-.1.4-.1 0-.1-.1-.1-.1-.1 0-.2.1-.3 0 0-.1.1-.2.1-.3 0-.2.1-.3.2-.5 0 0 0-.1.1-.1v-.2c0-.1-.1-.1-.1-.2 0 0 0-.1-.1-.1v-.1s0-.1-.1-.1v-.1s-.1 0-.1-.1c0 0 0-.1-.1-.1 0-.1-.1-.1-.1-.2l-.1-.1v-.1l-.1-.2c0-.1-.1-.1-.1-.2v-.1l.1-.1h.2v.1h.1c.1 0 .1.1.1.1.1-.1-.1-.2 0-.2s.2.1.3.1c.1.1.1.2.2.2.1.2.2.4.4.5.1-.3.3-.6.5-.8h.1c0-.1.1-.1.1 0l-.5 1c.1 0 .1-.1.1-.2.1-.2.3-.6.5-.8.1.1 0 .2-.1.3-.1.2-.3.5-.4.8.1.1.1.2.3.3 0 .1.1.1.1.1l.1.1s.1.2.2.2l.2.2s0 .1.1.1l.1.1.1.1.1.1.1.1.1.1.1.1.2.2v.1l.2.2.2.2.8.8c.1 0 0-.1 0-.1h-.1v-.1c0-.1-.1-.1-.2-.2v-.1h-.2v-.1c-.1-.1-.2-.2-.1-.3.1 0 .2.2.3.3 0 .1.1.1.1.2 0 0 0 .1.1.1v.1c0 .1.1.1.1.1v.1l.1.1v.1s0 .1.1.1l-.4.6c-.1 0-.1 0 0 0-.1.1-.1.1 0 0zm-.4.3c.1 0 .1.1.2 0-.1-.2-.2-.1-.2 0m-3.5-2.8c-.1.1-.1.1 0 0-.2.2 0 .1-.1.2l-.1.1h.1s.1-.1.1-.3c.1-.1.2-.2.1-.2-.1.1-.2.1-.1.2-.1 0 0 0 0 0M1003.1 228.6s.1.1 0 0c0 0 0-.1 0 0m.2.3c.1 0 .1 0 0 0 .1 0 .1 0 0 0m-.2-.4-.1-.1.1.1c-.1-.1 0 0 0 0m.3.5c0-.1 0 0 0 0 .1 0 .1 0 0 0 .1 0 0 0 0 0m-.4-.7-.1-.1.1.1m.1.3s0-.1 0 0c0-.1 0-.1 0 0m0 0s.1.1.1.2c0-.1 0-.2-.1-.2m-.3-.8zm0 0s-.1-.1 0-.1v.1m-.2-1v.2-.2m-.1-.8c.1 0 0 .1 0 .2v-.2m0-.2c.1 0 0 .1 0 .1v-.1m1.1 3.2c.1 0 .1.1.1.1 0 .1-.1 0-.1-.1m-1-2.6c0 .1 0 .1 0 0 0 .1 0 .1 0 0m1.6 3.1c-.1 0-.1 0 0 0-.1 0 0 0 0 0m.1-6.4c0-.1.1-.1.1-.1l-.1.1m-.6 5.7s0 .1.1.1c-.1 0-.1-.1-.1-.1m.2.3s0-.1 0 0c0-.1 0 0 0 0m-.4-.7s0-.1 0 0m1.2-5c-.1 0 0-.1 0 0m-1.3 4.5c.1 0 .1 0 0 0m1.1-4.3s.1 0 0 0c.1 0 .1.1 0 0 0 .1.1.1 0 0 .1 0 .1 0 0 0m-1.1 4v.2-.2m.1-1.2v.2c-.1-.1 0-.2 0-.2m.1 1.9v-.1.1m.2-3c.1.1 0 .1 0 0 0 .1 0 .1 0 0m.6-.6s-.1.1 0 0c-.1.1-.1 0 0 0m-.4.9c.1 0 .1 0 0 0m-.8 3.1c0-.1 0-.1 0 0-.1-.1-.1-.1 0 0 0-.1 0-.1 0 0 0-.1 0-.1 0 0m.3.3c-.1 0 0 0 0 0-.1-.1-.1-.1 0 0 0-.1-.1-.1 0 0 0-.1 0-.1 0 0l-.2-.2v.1l-.1-.1c-.1-.2-.2-.3-.3-.5v-.1c0-.1 0-.1 0 0v-.1c0-.1-.1-.2-.1-.3v.2-.1s.1.1 0 .2c-.1-.2-.1-.5-.2-.7-.1-.2 0-.3-.1-.6v-.1c0-.1-.1-.1 0-.2v.1-.3.1-.1c0-.1 0-.2-.1-.3v-.6.3-.1c0-.2.1-.4.1-.7.1.1 0 .2 0 .3 0 0 0-.1.1-.1V224.8c0-.3.3-.6.4-.9 0 0 0 .1-.1 0v-.1c-.1 0-.1.1-.1.1v.1c0-.2.1-.3.1-.5 0 0 0 .1 0 0v.1c.1-.1.1-.2.2-.3h-.1c.1-.1.2-.3.2-.3h.2s0-.2.1-.1h.1c-.1 0 0-.2 0-.1v-.1.1h.1s.1.1.1 0c.1.1.2.1.2 0v.1h.2v-.1c.1.2 0 .3 0 .5h-.1v.1h.1c.1.1 0 .1 0 .2s0 .2-.1.2c0 0 0 .1.1.1 0-.1.1-.1 0-.2.1.1 0 0 .1 0 0 .1-.1.1-.1.2.1 0 .1.2 0 .1v.1c-.1 0-.1.1-.2.1s0-.1 0-.1c-.2.1-.2.4-.3.7l-.1.1h-.1c0 .1-.1.1-.1.2s-.1.2-.1.4c0-.2.1-.4.2-.5-.1.1-.1.2-.2.3 0 .1-.1.2-.1.3 0 .1 0 .2-.1.2 0 .3-.1.5-.1.8v-.1.2-.1V227.2c0 .2 0 .4.1.6v.2s0 .1.1.2v-.1c0 .1 0 .1.1.2v-.1s.1.1.1.2v-.1.2s0-.1-.1-.1c0 .1.1.2.1.4v-.1s0 .1.1.1v.1l-.1-.1-.1-.1.1.1.1.1c-.1 0-.1-.1-.1-.1l.1.1-.1-.1c.3.3.2.2.1.2.1 0 .1 0 0 0 .1 0 .1 0 0 0m-.1-5.8s.1.1 0 0c.1 0 0 0 0 0m.8 1.1c0 .1.1 0 0 0m-.3.7s0-.1 0 0c0-.1 0 0 0 0m-.9 3.3c.1 0 0 0 0 0m0-.2s-.1 0 0 0c0 .1 0 0 0 0m.1.3s0-.1 0 0c0-.1 0 0 0 0m-.3-.8s0-.1 0 0m.6 1.2c0 .1.1.1 0 0 .1.1 0 0 0 0m-.5-1.1c-.1-.1-.1-.1 0 0-.1-.1-.1 0 0 0m-.1-.3c-.1.1 0 .1 0 0 0 .1 0 .1 0 0m.5-4s.1 0 0 0c.1-.1 0 0 0 0m.5-.4c0 .1-.1.1 0 0 0 .1 0 .1 0 0m.1.1c-.1 0 0 0 0 0-.1 0-.1 0 0 0-.1.1 0 .1 0 0m-.5 4.4s0 .1 0 0c0 .1 0 0 0 0m.8-3.3s0-.1 0 0c.1 0 .1-.1 0-.1.1 0 0 0 0 .1m.2-.4c-.1.1 0 .1 0 0M1004.5 224.1c-.1 0 0 0 0 0-.1 0-.1 0 0 0-.1-.1-.2 0-.1 0h.1m-1.1 2.9s0 .1 0 0c-.1.1 0 0 0 0m-.8-1.3c-.1 0 0 0 0 0m.8 3.2c0-.1 0 0 0 0 0-.1 0 0 0 0 0-.1 0 0 0 0m-.9-2.7c.1 0 .1.1 0 0 .1.1.1 0 0 0v.4-.4m1.4 3.1s-.1 0 0 0c0 .1 0 .1 0 0 0 .1 0 .1 0 0 0 .1 0 0 0 0m-1-5.2c-.1 0 0 .1 0 0-.1.1 0 .1 0 0m.9-1.2s.1 0 0 0c.1.1 0 .1 0 0M1003.5 228.3v.1-.1s0-.1 0 0M1002.4 229.6c.1 0 .2-.1.3-.1h.1c.1 0 .2-.1.3-.1l.1.1h.2c.2 0 .5.2.7.4.5.4 1 1 1.3 1.5l.1.1s0 .1.1.1c.1.1.1.2.2.3v.1s0 .1.1.1l.1.1v.1c0 .1.1.2.1.2s0 .1.1.1v.1c0 .1.1.2.1.3v.1c0 .1.1.1.1.2 0 0 0 .1.1.2v.3s0 .1.1.1v.3c-.1.3-.3.3-.4.5 0 .1-.2.3-.3.4l-.1.1c-.1.1-.3 0-.5 0h-.1c-.1 0-.2-.1-.4-.2-.1 0-.2-.1-.4-.2-.2-.2-.4-.3-.6-.5l-.4-.4h-.1c0-.1-.3-.3-.4-.4v-.1l-.1-.1v-.2h-.1c-.1-.2-.2-.3-.3-.5v-.3c0-.1-.1-.1-.1-.1v-.1s-.2-.4-.2-.5v-.2l-.1-.1v-.1c-.1-.2-.1-.5 0-.7 0-.1.2-.6.3-.7.1-.1.1-.2.1-.2m2.4 4.7s0 .1.1.1l.1.1c.1.1.4.2.5.1 0-.1 0 0 0 0-.4-.2-.9-.5-1.1-.8l-.1-.1-.5-.5c-.1-.1-.2-.3-.3-.3.2.2.4.5.7.8.1.2.3.4.6.6m-1.5-2.6c.5.7 1.2 1.4 2 2.1.1 0 0-.1 0-.2s-.1-.2-.1-.3c0 0-.1 0-.1-.1v-.1l-.1-.1c0-.1 0-.1-.1-.2 0 0 0-.1-.1-.1 0-.1-.1-.2-.1-.3-.1 0 0 0 0-.1-.1-.1-.1-.2-.1-.3h-.2s-.1 0-.1-.1v-.2l-.1-.1v-.1s-.1 0-.1-.1v-.1c-.1-.1-.1-.2-.2-.2l-.1-.1s-.1 0-.1-.1c0 0-.2-.1-.2-.2v-.1c-.1-.1-.3-.3-.5-.4-.1-.1-.2-.2-.3-.2-.1.6 0 1.1.2 1.6.2.1.3 0 .4.1m.6-1.3c.1 0 .1.2.2.1-.1.1-.2-.2-.2-.1m-1-.7s0 .1 0 0c.2.2.3.1 0 0m.7.4c0 .1.2.1 0 0 0 0-.1 0 0 0m-.4-.3c.1 0 .4.3.2.1 0 0-.2-.2-.2-.1M1005.3 222.8c.1 0 .2-.1.3-.1h.1c.1 0 .2-.1.3-.1l.1.1h.2c.2 0 .5.2.7.4.5.4 1 1 1.3 1.5l.1.1s0 .1.1.1c.1.1.1.2.2.3v.1s0 .1.1.1l.1.1v.1c0 .1.1.2.1.2s0 .1.1.1v.1c0 .1.1.2.1.3v.1c0 .1.1.1.1.2 0 0 0 .1.1.2v.3s0 .1.1.1v.3c-.1.3-.3.3-.4.5 0 .1-.2.3-.3.4l-.1.1c-.1.1-.3 0-.5 0h-.1c-.1 0-.2-.1-.4-.2-.1 0-.2-.1-.4-.2-.2-.2-.4-.3-.6-.5l-.4-.4h-.1c0-.1-.3-.3-.4-.4v-.1l-.1-.1v-.2h-.1c-.1-.2-.2-.3-.3-.5v-.3c0-.1-.1-.1-.1-.1v-.1s-.2-.4-.2-.5v-.2l-.1-.1v-.1c-.1-.2-.1-.5 0-.7 0-.1.2-.6.3-.7 0-.1.1-.1.1-.2m2.3 4.8s0 .1.1.1l.1.1c.1.1.4.2.5.1 0-.1 0 0 0 0-.4-.2-.9-.5-1.1-.8l-.1-.1-.5-.5c-.1-.1-.2-.3-.3-.3.2.2.4.5.7.8.1.2.4.4.6.6m-1.4-2.6c.5.7 1.2 1.4 2 2.1.1 0 0-.1 0-.2s-.1-.2-.1-.3c0 0-.1 0-.1-.1v-.1l-.1-.1c0-.1 0-.1-.1-.2 0 0 0-.1-.1-.1 0-.1-.1-.2-.1-.3-.1 0 0 0 0-.1-.1-.1-.1-.2-.1-.3h-.2s-.1 0-.1-.1v-.2l-.1-.1v-.1s-.1 0-.1-.1v-.1c-.1-.1-.1-.2-.2-.2l-.1-.1s-.1 0-.1-.1c0 0-.2-.1-.2-.2v-.1c-.1-.1-.3-.3-.5-.4-.1-.1-.2-.2-.3-.2-.1.6 0 1.1.2 1.6.2 0 .2-.1.4.1m.6-1.3c.1 0 .1.2.2.1-.1 0-.3-.2-.2-.1m-1-.7c.2.1.2 0 0 0m.7.4s.1.1 0 0c0 0-.1-.1 0 0m-.4-.3c.1 0 .4.3.2.1 0 0-.3-.2-.2-.1" class="st2"/><path d="m1000.1 228.1.1.1c0-.1-.2-.2-.1-.1m.4.3s.1 0 0 0c.1 0 0 0 0 0m-.5-.4c-.1 0-.1-.1-.1-.1h.1c-.1 0 0 .1 0 .1m.6.4s.1.1 0 0c.1 0 .1 0 0 0 .1 0 .1 0 0 0 .1 0 .1.1 0 0 .1.1.1.1 0 0m-.8-.7s-.1-.1-.1-.2c0 .1 0 .1.1.2m.3.3s-.1-.1 0 0m0 0s.1 0 0 0l.2.2c0-.1-.1-.2-.2-.2m-.7-.9c0-.1 0 0 0 0zm-.1-.1s-.1-.1-.1-.2c.1.1.1.1.1.2m-.2-1.6v.3-.3m.5-1.2s-.1.1-.1.2c0 0 .1-.1.1-.2m.1-.2c0 .1-.1.1-.1.2 0 0 .1-.1.1-.2m1.2 4.4c.1 0 .1.1.2.1-.1.1-.2 0-.2-.1m-1.6-3.6v.1-.1m2.6 4h-.1c0-.1.1 0 .1 0m1.2-6.6s.1 0 .2-.1c0 .1-.1.1-.2.1m-2.2 5.5s.1 0 0 0l.1.1c0 .1 0 0-.1-.1m.5.2s-.1 0 0 0c-.1 0-.1 0 0 0m-.8-.6c-.1 0-.1-.1 0 0M1000.2 226.8s0 .1 0 0c0 .1 0 .1 0 0m2.7-4.2c0-.1.1-.1 0 0m-3 3.8c.1 0 .1.1.1.2 0 0 0-.1-.1-.2m.1-1.3c0 .1-.1.1-.1.2 0-.1.1-.1.1-.2m.6 2.2-.1-.1s.1 0 .1.1m.3-3.3c0 .1 0 .1 0 0-.1.1-.1 0 0 0m.9-.5-.1.1c0-.1.1-.1.1-.1m-1 .9s0 .1 0 0m-.6 3.7-.1-.1s0 .1.1.1c0 0 0-.1 0 0 0-.1 0 0 0 0m.6.3c0 .1-.1 0-.1 0h.1c-.1 0-.2 0-.1-.1 0 .1 0 .1.1.1-.1-.1-.3-.2-.3-.2s0-.1-.1-.1c0 0 0 .1.1.1l-.1-.1h-.1c-.2-.2-.4-.3-.6-.6 0 0 0-.1-.1 0v-.1c-.1-.1-.1-.1.1 0 0 0-.1-.1-.1-.2l.1.1c0-.1-.2-.3-.2-.5 0 .1.1.2.1.2l-.1-.1c0 .1.1.2.1.3-.1-.2-.2-.3-.3-.5-.1-.2-.1-.4-.2-.6v-.6c0-.2.1-.3.1-.5v-.1c0-.1 0-.1.1-.2v.1c0-.1.1-.1.1-.2s.1-.2.1-.2c-.1.1-.1.2 0 .1 0 0 0-.1.1-.1.1-.2.1-.3.2-.4v.1s0-.1.1-.1v-.1.1c.1-.1.2-.2.2-.3l.1-.1c-.1 0-.2.2-.2.2l.1-.1.6-.6c0 .1-.2.2-.2.2l.1-.1v-.1l.1-.1.1-.1c.3-.2.6-.4 1-.6h-.1.1s-.1 0-.2.1l-.1.1c.1-.1.3-.2.4-.3l-.1.1c.1 0 .2-.1.3-.1h-.1c.1-.1.3-.1.4-.2h.2c.1 0 .1-.1.2 0h.1l.1-.1.1-.1h.2s.1.1.1 0c0 0-.1 0-.1.1H1003.6c-.1.1-.2.2-.4.3h-.1.1l-.1.1c-.1.1-.1.1-.2.1v.1c.1 0 .1-.1.2-.1h.1c0 .1-.2.1-.2.2.1 0 0 .1-.1.1v.1c-.1 0-.2.1-.3.1 0 0 0-.1.1-.1-.3.1-.6.4-.8.6 0 0-.1 0-.1.1h-.1c-.1.1-.2.2-.3.2-.1.1-.3.2-.3.3.1-.2.3-.4.5-.5-.1 0-.2.2-.4.3l-.2.2c-.1.1-.1.2-.2.2-.1.2-.2.3-.3.5-.1.1-.1.3-.2.5 0 0 0-.1.1-.1V225.4v-.1c0 .1-.1.2 0 .2v.4c.1.2.2.5.4.7v.1c0 .1.1.2.1.2l.2.2h-.1l.2.2-.1-.1c.1 0 .2.1.2.2 0 0 0-.1-.1-.1.1 0 .1.2.2.2-.1 0-.1-.1-.2-.1.1.2.3.2.4.4h.1v.1h-.1v.1h-.1l.1.1c0 .1.1.1.1.1h-.2s.1.1.2.1v-.1c.1.1.2.1.2.2-.1 0-.1-.1-.2-.1h.1c-.1 0 0 0 0 0-.1 0-.1-.1-.1-.1-.6.3-.8.1-.9.2 0-.1 0-.1 0 0 0-.1.1 0 .1 0h-.1m1.5-6.2s.1 0 0 0c.1 0 0 0 0 0m-.2.9c-.1 0-.1 0 0 0-.1 0 0 0 0 0m-.9.6.1-.1-.1.1m-1.3 4s0-.1 0 0c0-.1 0 0 0 0m-.2-.3s0 .1.1.1c0 0-.1 0-.1-.1m.3.3s-.1-.1 0 0c-.1 0 0 0 0 0m-.7-1s0-.1-.1-.1c.1.1.1.2.1.1m1.3 1.5c0 .1.1.1.1.1l-.1-.1m-1.2-1.3s0-.1-.1-.1c.1 0 .1.1.1.1m-.2-.4v.1c.1 0 0-.1 0-.1m2.9-4.2s.1 0 0 0c.1 0 0 0 0 0m.6-.2s0 .1 0 0m0 .1s.1 0 0 0h-.1.1m-2.8 4.2s0 .1 0 0c0 .1 0 0 0 0m2.3-3.4s0-.1 0 0c.1 0 .2-.1.1-.1 0 0-.1 0-.1.1m.4-.3c-.1.1 0 .1 0 0m-1.5 1.1s-.1 0 0 0c-.1 0 0 0 0 0m1.4-.9s-.1 0 0 0c0 0-.1 0 0 0-.1-.1-.2 0-.2 0h.2m-2.7 2.9s0 .1 0 0c-.1.1 0 .1 0 0m0-1.8c0-.1.1-.1 0 0 .1-.1.1-.1 0 0 .1-.1.1-.1 0 0m.8 4.4s0-.1 0 0c0 0-.1 0-.1-.1 0 0 .1 0 .1.1 0-.1 0-.1 0 0 0-.1 0-.1 0 0 0-.1 0-.1 0 0 0-.1 0-.1 0 0 0-.2 0-.1 0 0 0-.1 0-.1 0 0m-1.2-3.9v.1c0 .1.1 0 0-.1-.1.2-.1.3-.2.5v-.1s.1-.1.1-.2c0 0 .1-.1.1-.2m2 4.1s-.1-.1 0 0c0 0 .1 0 0 0 .1 0 .1 0 0 0 .1 0 .1 0 0 0 .1.1 0 0 0 0m-.1-5.9s0 .1 0 0c-.1 0 0 0 0 0m1.5-.7s.1 0 0 0c.1 0 .1.1 0 0 .1.1 0 .1 0 0m-1.7 5.9c-.1 0 0 0 0 0-.1 0 0 0 0 0m-.6-.7.1.1-.1-.1s-.1 0 0 0M1003.3 219.9s-.1 0 0 0c0 0 .1-.1 0 0M1003.4 219.9h.1c0-.1 0 0-.1 0 .1-.1 0 0 0 0m-.4.1c0 .1 0 .1 0 0 0 .1 0 .1 0 0 0 .1 0 .1 0 0 0 .1-.1.1 0 0-.1.1 0 .1 0 0m.6-.2c.1 0 .1 0 0 0 .1 0 .1 0 0 0 .1 0 .1 0 0 0 .1 0 .1 0 0 0m-.3.1s.1 0 0 0c.1 0 .1 0 0 0m.1 0s-.1.1-.2.1c0 0 .1 0 .2-.1m.3-.1zM1003.4 219.5c0-.1.1 0 0 0 .1 0 0 0 0 0m-.1-.1s.1 0 0 0c.1.1 0 0 0 0m-.4.9c0 .1-.1 0-.1.1 0-.1.1-.1.1-.1M1002.2 220.6c.1 0 .1 0 0 0 .1 0 0 0 0 0m-.5.1v.1-.1c0 .1 0 0 0 0m1.5.1c.1 0 0 0 0 0h-.1.1m-.3.2s.1 0 0 0c.1 0 .1 0 0 0m.7-.2c.1-.1.1 0 0 0m-2.1-.1v.1-.1m2.7-.1c-.1 0-.1 0 0 0-.1 0-.1 0 0 0m-2.7-.3v.1-.1c.1 0 0 0 0 0 0 .1 0 0 0 0m3.1 0c0 .1-.1.1-.2.2 0-.1.1-.1.2-.2m-.6-1.4c.1 0 .1.1.2.1-.1 0-.2-.1-.2-.1m-.3 1.9s.1 0 .1-.1c0 .1-.1.1-.1.1m-1-2.3c0-.1.1 0 .1 0 0-.1 0 0-.1 0m-.9.6s0-.1.1-.1c0 0-.1 0-.1.1m1.3-.9c-.1 0-.1 0 0 0-.1 0 0 0 0 0m.1 1.8c.1-.1.1-.1 0 0 .1-.1.1-.1 0 0 .1-.1.1-.1 0 0 .1-.1.1 0 0 0m-.3.2s0 .1 0 0c.1 0 0 0 0 0 .1 0 .1 0 0 0v-.1c.1 0 .1.1 0 .1.1-.1.1-.1 0 0 .1 0 .1 0 0 0 .1 0 .1 0 0 0 .1 0 .2-.1.2-.1h-.1.1c.2-.1.3-.1.4-.2h.1-.1.1v-.2l-.1-.1s.1.1 0 0h-.1c-.1 0-.1-.1-.2-.1h-.1s-.1-.1-.2 0h-.1s.1 0 .1.1h-.1c-.1 0-.2-.1-.3 0 0-.1.1 0 .1-.1h-.1s-.1 0 0 0c-.1 0-.1.1-.2.1-.1.1-.2.2-.2.3v.1l.1-.1v-.1c0 .1-.1.2-.1.3v-.1c0 .1-.1.2-.1.2 0 .1-.1.2-.1.3 0 0-.1 0-.1.1 0 0 0 .1-.1.1h-.1v.1s0 .1 0 0v.1s-.1 0 0 0c0 0-.1 0 0 0 0 0-.1 0-.1.1v.2c-.1 0-.1-.1-.1-.2v-.3.1-.2c0-.1 0-.1.1-.2v-.1c0 .1-.1.1 0 .2 0-.1.1-.2.1-.2 0 .1-.1-.1 0-.1v-.1c.1 0 .1-.2.1-.3v.1c.1-.1.1-.2.2-.4s.2-.3.3-.4l.1-.1h.1c.1-.1.2-.1.3-.1h.5c-.2 0-.5 0-.7.1.1 0 .3-.1.4-.1h.3c.1 0 .2 0 .3.1.2.1.3.2.4.3l.2.2.1.1.1.1s-.1-.1-.1-.2c0 0 .1.1.1.2 0 0 .1.2 0 .1 0 0 0-.1-.1-.1.1.1.1.2.2.3 0 .1.2.3.1.5 0 .1 0 .1-.1.2l-.1.1c-.1.1-.3.1-.4.2H1003.6c0 .1-.1.1-.2.1 0-.1 0 0 .1 0h-.2.1c0 .1-.1.1-.2.1h.1-.2s.1 0 .1-.1h-.4.1-.1.1-.1c0-.1-.1 0-.1 0h.1c0-.1 0 0 .1-.1H1002.6s.1 0 .2-.1h-.1.1c0-.5.1-.6.1-.7.1.1.1.1 0 0 .1.1 0 .1 0 0 0 .1 0 .1 0 0M1002.3 218.7l-.1.1c.1 0 .1-.1.1-.1.1 0 0-.1 0 0M1003.5 220s.1 0 0 0c.1-.1 0 0 0 0m.3-.1c0-.1.1 0 0 0 0-.1 0-.1 0 0m-.7.3s-.1 0 0 0c-.1 0 0 0 0 0m.7-.3c.1 0 0 0 0 0m.1-.1c-.1 0 0 0 0 0 0 .1 0 0 0 0m-1.7.3c0 .1 0 .1 0 0 0 .1 0 0 0 0m-.3.4s.1 0 0 0m2.7-.2s-.1 0 0 0c-.1 0 0 0 0 0m-2.8-.6c0 .1-.1.1 0 .1-.1 0 0-.1 0-.1m-.2.4c.1-.1 0-.1 0 0M1001.6 219.9s0-.1 0 0c0-.1.1-.1 0 0 .1 0 .1-.1.1-.1l-.1.1c.1-.1 0-.1 0-.1v.1m2.9-.3.1.1c0 .1 0-.1-.1-.1m-1.2-.3c0 .1 0 0 0 0m-.3.8s.1 0 0 0c.1 0 .1 0 0 0 .1 0 .1 0 0 0 .1 0 0 0 0 0 .1.1.1 0 0 0 .1.1.1 0 0 0 .1.1.1.1 0 0m.5-.6c.1 0 .1 0 0 0 .1.1.1 0 0 0 .1 0 .1 0 .1.1.1 0 0 0-.1-.1.1.1.1.1 0 0m-.9 1s.1 0 0 0-.1 0 0 0c-.1 0-.1 0 0 0-.1-.1 0 0 0 0m-.1-.9c.1 0 0-.1 0 0 .1 0 .1 0 0 0M1003.8 220.7c-.1 0 0 .1 0 0 0 0-.1 0-.1.1-.1 0 0 0 .1-.1-.1 0 0 0 0 0M1005.4 229c0-.1 0-.1 0 0-.1 0 0 0 0 0m0 0c0 .1 0 .1 0 0 0 .1 0 0 0 0m-.1-.2c-.1 0-.1-.1 0 0-.1 0-.1 0 0 0-.1 0-.1 0 0 0-.1-.1-.1-.1 0 0-.1-.1 0-.1 0 0m.1.3s0 .1 0 0c0 .1 0 .1 0 0m-.1-.1s.1 0 0 0m0 0s0-.1 0 0c0-.1 0 0 0 0m.2.4zm0 0s.1 0 0 0m.3.4s-.1 0 0 0c-.1 0 0 0 0 0m0 .4c0-.1 0 0 0 0m-.4.5c.1-.1 0 0 0 0l.4-.4-.4.4m-.3-2c0-.1 0 0 0 0m.8 1.3s-.1 0 0 0M1004.7 228.8c-.1 0-.1 0 0 0-.1 0 0 0 0 0m-.1.2v-.1.1m0 .3c.1.1.1.1 0 0m.2-.7c-.1 0-.1 0 0 0-.1 0-.1 0 0 0M1004.9 228.7c.1 0 0 0 0 0m0 1.2-.1-.1c.1 0 .1.1.1.1m.6.8c-.1 0-.1-.1-.1-.1s.1 0 .1.1m-.9-1.3c0 .1 0 0 0 0m1.3.4c0 .1 0 0 0 0M1006.1 229.9c0-.1.1 0 0 0m-.8-1s0 .1 0 0c0 .1 0 .1 0 0 0 .1 0 .1 0 0 0 .1 0 0 0 0m-.2-.2c0 .1 0 .1 0 0 0 .1 0 0 0 0 0 .1 0 .1 0 0 0 0 .1 0 0 0 .1 0 .1 0 0 0 .1 0 .1 0 0 0 .1.1.1.1 0 0 .1.1.1.1 0 0 .1.1.1.1 0 0 .1.1.1.1 0 0 0 .1.1.1.1.1v.1c0 .1.1.2.1.3v.1c-.1.1.1.1.1.2v-.1s-.1-.1 0-.1c.1.1.1.2.2.3.1 0 .1.2.2.2h.1l.1.1v.1l-.3.5.3-.5-.3.5s0-.1-.1-.2v-.1s.1.1.1.2v-.1c-.1-.1-.1-.3-.2-.4l.1.1v-.2c-.1-.1-.1-.4-.2-.5v.2c-.1 0-.1-.1-.1-.2 0 0 0-.1-.1-.1l-.1-.1v-.1s-.1 0 0-.1v-.1s-.1 0 0 0c0 0 0-.1 0 0v-.4c.1-.1.2 0 .3 0v.1h.1c-.4.3-.4.3-.4.2.1.1.1.1 0 0 .1.1 0 0 0 0s.1.1 0 0c.1 0 .2 0 .2.1s.1.1.1.2h-.1c.1.2.3.3.4.5v.1c0 .1.1.1.1.2s.1.2.1.2c-.1-.1-.1-.2-.2-.4 0 .1.1.2.1.3 0 .1.1.1.1.2s.1.1.1.1v.1l.2.4-.4.1h-.2c-.1 0-.1-.1-.2-.1l-.2-.2.1.1s-.1 0-.1-.1c0 0 0-.1 0 0 0-.1-.1-.1-.1-.1 0-.1-.1-.1-.2-.2s-.2-.3-.2-.4c0-.1-.1-.1 0-.2 0 0 0-.1-.1-.1v-.2.1c-.1 0-.1-.1-.1-.2v.1-.2.1-.4c.1 0 0-.1 0-.1h.1v-.2.2c.4-.1.4.1.5 0 0 .1 0 .1 0 0-.1.1 0 0 0 0m-.3.6s0-.1 0 0M1005.7 229.6s0-.1 0 0c0-.1 0 0 0 0s.1 0 0 0m-.4-.5c0 .1 0 .1 0 0 0 .1 0 .1 0 0m.1.2s0-.1 0 0c-.1 0 0-.1 0 0m-.1-.2c0 .1 0 .1 0 0 0 .1 0 0 0 0m.2.4s0 .1 0 0m-.4-.6c0-.1 0-.1 0 0 0-.1 0 0 0 0m.3.6c.1 0 .1 0 0 0 .1 0 0 0 0 0m-.5-.1c-.1-.1 0-.1 0 0-.1-.1 0 0 0 0m-.2-.3s.1 0 0 0m.1 0s-.1 0 0 0c0 0 0-.1 0 0M1005.3 229s-.1-.1 0 0c-.1-.1 0 0 0 0m-.2-.2c0 .1 0 0 0 0m.7.9s-.1 0 0 0m-.6-.9s.1 0 0 0c0 .1 0 .1 0 0v.1c.1 0 0 0 0-.1.1.1.1 0 0 0 .1 0 0 0 0 0m0 1.5s-.1-.1 0 0c0-.1 0 0 0 0m.2.3c0-.1 0-.1 0 0 0-.1 0 0 0 0M1005.9 230v-.1.1M1005 229.7s.1 0 0 0c0 .1 0 0 0 0m-.4-.8c.1 0 0 0 0 0s.1 0 0 0m.1.5c-.1 0-.1 0 0 0-.1-.1-.1 0 0 0 0 0 0 .1 0 0M1006.3 230.4s-.1 0 0 0m0 0c0 .1 0 .1 0 0 0 .1 0 .1 0 0m0 0c.1 0 0 0 0 0m0-.1c.1 0 0 0 0 0zm.1-.2c0 .1 0 .1 0 0 0 .1 0 .1 0 0m0-.1c.1 0 0 0 0 0m0 .5c.1 0 0 0 0 0M1006.4 230.6c.1 0 .1.1 0 0m.6-.8c-.1 0 0 0 0 0m0 .8c-.1 0 0 0 0 0m.1 0c-.1 0 0 0 0 0m0-.6s.1 0 0 0c0 0 .1 0 0 0M1007.3 230.4s.1 0 0 0c.1 0 .1 0 0 0m-.9.1s-.1 0 0 0c-.1 0 0 0 0 0-.1 0 0-.1 0 0 0-.1 0-.1 0 0 0-.1 0-.1 0 0-.1-.1-.1-.1 0-.2.1 0 0 0 0 0-.1 0 0 0 0 0l.1-.1v-.2s.1 0 .1-.1c0 0 .1 0 .1-.1v-.1H1007l.1.1s.1.1 0 0v.1-.1.2c-.1 0 0 0 0 0h-.2s-.1 0 0 0h-.2c-.2.6-.2.5-.3.5 0 0 .1 0 0 0 .1 0 0 0 0 0m.8-.4s-.1 0 0 0M1006.4 230.4s0-.1 0 0m0-.1s.1 0 0 0m0 0c.1 0 0 0 0 0m.3-.6s-.1 0 0 0m.1.1c0-.1 0-.1 0 0 0-.1 0-.1 0 0m.2.7s.1 0 0 0m.1-.4s0-.1 0 0m0-.1s.1 0 0 0m0 .2s.1 0 0 0m.1-.1c0-.1 0 0 0 0m-.1.3c-.1 0 0 0 0 0m-.6-.4c-.1 0 0 0 0 0m-.1.5c-.1 0-.1 0 0 0-.1 0-.1 0 0 0 0 0-.1 0 0 0M1006.5 230.6c-.1 0 0 0 0 0m.1-.8c-.1 0 0 0 0 0-.1 0 0 0 0 0m.2-.1c-.1 0 0 0 0 0M1007.1 230.6" class="st2"/></g></g><g id="EPAULE_x5F_GAUCHE_x5F_FRONT"><defs><path id="SVGID_1_" d="M337.8 166c6.7 1.7 26.4 7.2 26.4 7.2 15.9 4.6 32.2 10 37.3 14 5 3.9 17.7 15.6 25.1 16.8 15.6 2.7 31.9 15.7 41.4 29.9 8.8 13.2 9 18.4 20.5 24.6 2.9 1.6 7.1 4.7 12 9.1L473.9 290s-80.3-27.7-86.1-32.5c-5.9-4.9-65.1-80.9-65.1-80.9l8.6-12.5.1-.1c1.9.7 4 1.4 6.4 2z"/></defs><use xlink:href="#SVGID_1_" style="overflow:visible;fill:#0a6f47"/><clipPath id="SVGID_00000080166779350316013630000008580889294780671909_"><use xlink:href="#SVGID_1_" style="overflow:visible"/></clipPath><use xlink:href="#SVGID_1_" style="overflow:visible;fill:none;stroke:#1d1d1b;stroke-width:.5;stroke-miterlimit:10"/></g><path id="EPAULE_x5F_DROITE_x5F_FRONT" d="M205.4 166.6c-6.7 1.7-26.4 7.2-26.4 7.2-15.9 4.6-32.2 10-37.3 14-5 3.9-17.7 15.6-25.1 16.8-15.6 2.7-31.9 15.7-41.4 29.9-8.8 13.2-9 18.4-20.5 24.6-2.9 1.6-7.1 4.7-12 9.1l27 22.7s79.7-27.9 85.6-32.8c5.9-4.9 65.1-80.9 65.1-80.9l-8.6-12.5-.1-.1c-1.8.7-4 1.4-6.3 2z" class="st7"/><g id="LOGO_x5F_EPAULE_x5F_FRONT"><defs><path id="MASK_00000061452816749322602500000004443747164800648586_" d="M205.4 166.6c-6.7 1.7-26.4 7.2-26.4 7.2-15.9 4.6-32.2 10-37.3 14-5 3.9-17.7 15.6-25.1 16.8-15.6 2.7-31.9 15.7-41.4 29.9-8.8 13.2-9 18.4-20.5 24.6-2.9 1.6-7.1 4.7-12 9.1l27 22.7s79.7-27.9 85.6-32.8c5.9-4.9 65.1-80.9 65.1-80.9l-8.6-12.5-.1-.1c-1.8.7-4 1.4-6.3 2z"/></defs><use xlink:href="#MASK_00000061452816749322602500000004443747164800648586_" style="overflow:visible;fill:#0a6f47"/><clipPath id="MASK_00000143584019423914031150000008847025474453902991_"><use xlink:href="#MASK_00000061452816749322602500000004443747164800648586_" style="overflow:visible"/></clipPath><g id="LOGO_x5F_TCTM" style="clip-path:url(#MASK_00000143584019423914031150000008847025474453902991_)"><path d="M69.5 230.1c-.1 0-.1 0-.2-.1 0 0-.1 0-.1-.1-.1 0 .1-.1 0-.1 0-.1.1 0 .1 0s.1 0 .1.1c.1-.1-.1-.1-.1-.2s.1-.1.1-.2c-.2-.4-.6-.8-1-1.1-.1 0 0 .1-.1.2-.6.1-1.3.3-2 .5h-.1s-.2 0-.2.1c-.1 0-.4.1-.5.1-.1 0-.1 0-.2.1-.1 0-.1.1-.2.1H65s-.2 0-.2.1h-.1s-.1 0-.2.1h-.1s-.2.1-.3.1c-.2.1-.4.1-.6.2-.1 0-.1.1-.2.1l-.1.1s0 .1-.1.1c-.1-.1-.1-.2-.1-.3h.1s.1 0 0 0v-.1l.1-.1c.2-.2.6-.4.9-.5-.1.1-.1 0 0 0s.3-.1.4-.1c.1 0 .1 0 .2-.1h.6c.1 0 .3-.1.4-.1h-.2c-.1 0-.2.1-.2.1s-.1 0-.2.1c-.1 0-.2 0-.2.1-.3.1-.6.2-1 .4h-.1c-.1.1-.3.2-.3.3 0 .1-.1.1-.2.1s0-.1 0-.1h.1v-.1l.1-.1v-.1s.1-.1.2-.1.1-.1.2-.1c.2-.1.2-.2.4-.2.1 0 .1-.1.2-.1.2-.1.4-.1.5-.2 1-.4 2.1-.6 3-.8l-.1-.1s-.1-.1-.2-.1c0 0-.1 0-.1-.1-.1 0-.1-.1-.1-.1h-.1s-.1-.1-.2-.1c0 0-.1-.1-.2-.1 0 0-.1 0-.1-.1-.1 0-.1-.1-.1-.1h-.2c-.1 0-.1-.1-.1-.1h-.1c-.1 0 0 .1-.1.1V227.1s.1 0 .1-.1.2-.2.2-.2h-.1c0-.1.1-.1.2-.1h.1c.1 0 .2 0 .2.1h.5c.1 0 .1.1.1.1s.1 0 .2.1c0 0 .1.1.2.1l.1.1h.1s.1.1.2.1c.1.1.3.2.5.2.1 0 .1.1.2.1.1.1.1.1.2.1l.1.1c.1.1.1.1.2.1.1.1.1.1.2.1l.1.1c.2.2.6.6.7.9 0 .1 0 .1.1.2v.2l-.1.1v.1s-.1 0-.1.1c-.1.1-.2.1-.3.2l-.2.2c-.1 0-.1.1-.2.1s-.3 0-.4-.1c-.1 0 0 0-.1-.1.1-.1.1-.1.3-.1.1 0 .2.2.4.1-.3.1-.4.1-.5.1m.2-1.4c-.1-.1-.1-.1 0 0-.2-.2-.2-.3-.3-.3-.2-.1-.4-.3-.5-.4-.1 0-.1-.1-.2-.2h-.1c-.1-.1-.2-.2-.3-.2-.1 0-.1-.1-.1-.1s-.1 0-.1-.1c-.2-.1-.3-.2-.4-.2h-.1c-.1 0-.1-.1-.2-.1h-.2s-.1 0-.1-.1c-.1 0-.2-.1-.3-.1 0 0-.1 0 0 0s.2.1.4.1c.4.1.8.4 1.1.6.2.2.5.4.8.5l1 1c0 .1.1.1.1.2s.1.2.1.2c0 .1 0 .1.1.1 0-.2-.1-.5-.3-.7-.3-.1-.3-.2-.4-.2m-1.6-1s-.1 0 0 0c-.1-.1-.1-.1-.2-.1-.2-.1-.3-.2-.6-.3.4.2.7.4 1.1.6h.1c-.3 0-.3-.1-.4-.2m-.1.4c-.1 0-.2 0-.2.1.1-.1.2 0 .2-.1m0 .2h.2s0 .1.1 0c-.1-.1-.1-.1-.3 0 .1 0 0-.1 0 0m-.1.1h.1-.1c-.2.1-.1 0 0 0m.6-.4c.1.1.3.2.4.3 0 0 0 .1.1.1-.1-.1-.2-.1-.2-.2-.2-.1-.2-.2-.3-.2m.6.4c-.1-.1-.1.1 0 0 0 .1 0 .1 0 0" class="st2"/><path d="M68.8 230.6v.5h-.1v.1c-.1.1-.2.2-.4.3-.3.2-.8.3-1.2.4H65.6s-.1 0-.2-.1h-.1c-.1 0-.1-.1-.2-.1-.1-.1-.1-.3-.1-.4-.1-.1-.1-.2-.1-.2v-.1c0-.1.1-.2.1-.3l.2-.2s.1-.1.2-.1c.1-.1.3-.2.4-.2.1 0 .2-.1.3-.1.1 0 .2-.1.3-.1h.1s.1 0 .1-.1H67.5l.1.1h.1c.1 0 .3.1.4.1.1 0 .3.3.3.3.4.1.4.1.4.2m-3.2.1c0 .1 0 0 0 0-.1 0-.1.1-.2.1l-.2.2c.2-.2.5-.4.7-.5 0 0 .1 0 .1-.1.1-.1.3-.1.4-.2.1 0 .2 0 .2-.1-.2.1-.4.1-.6.2 0 .3-.2.4-.4.4m1.8-.1c-.6.1-1.1.3-1.7.6 0 0 .1.1.1 0H67.2l.1-.1h.5l.1-.1c.1 0 .2-.1.3-.2.1 0 .2-.1.2-.1-.3-.2-.6-.3-.9-.3 0 0 .1.1-.1.2m.5.6s-.2 0-.1.1c0-.1.2-.1.1-.1m.7-.4c-.1.1-.1.1 0 0m-.4.3c-.1 0-.1.1 0 0m.2-.1s-.2.1-.1.1c0 0 .2-.1.1-.1" class="st2"/><path d="M67.1 232.2c0 .1.1-.1.2 0 .4-.2.7-.2 1-.3 0 .1-.1 0-.1.1-.1 0-.2.1-.4.1h-.1c-.2.1-.5.2-.7.3-.1-.1 0-.1.1-.2m2.9-.2v.3c-.3.1-.6.2-1 .3 0 0-.1 0-.2.1h-.2c0 .1 0 0 .1 0h.9s.1.1.2 0H70.8c.1.1.1.2 0 .4v.1c-.4.3-.8.4-1.3.6h-.1c-.2.1-.4.2-.5.3-.2.1-.3.2-.5.3 0 0-.1 0-.1.1-.1 0-.2.1-.3.2 0-.1-.1-.1-.1-.2s0-.1.1-.2h-.2c-.1-.1 0-.2 0-.2.1-.1.2-.1.3-.2l.6-.3c.1 0 .2 0 .2-.1.1 0 .1-.1.2-.1s.1 0 .2-.1c.1 0 .1 0 .2-.1h.1s.2 0 .3-.1H66.7c-.1-.1-.1-.1-.2-.1-.1-.1 0-.1.1-.2-.1-.1-.2-.1-.3-.3 0-.1.1-.2.3-.3 0 0 .2-.1.3-.1.1 0 .2-.1.2-.1.1-.1.3-.1.4-.2.5-.2 1-.3 1.5-.4h.2c.1 0 .3-.1.4-.1.4.5.4.6.4.7 0 0-.1 0 0 0-.2 0-.1 0 0 0M62.6 234.9c-.1 0-.1 0-.2-.1 0 0-.1 0-.1-.1-.1 0 .1-.1 0-.1 0-.1.1 0 .1 0s.1 0 .1.1c.1-.1-.1-.1-.1-.2s.1-.1.1-.2c-.2-.4-.6-.8-1-1.1-.1 0 0 .1-.1.2-.6.1-1.3.3-2 .5h-.1s-.2 0-.2.1c-.1 0-.4.1-.5.1-.1 0-.1 0-.2.1-.1 0-.1.1-.2.1h-.1s-.2 0-.2.1h-.1s-.1 0-.2.1h-.1s-.2.1-.3.1c-.2.1-.4.1-.6.2-.1 0-.1.1-.2.1l-.1.1s0 .1-.1.1c-.1-.1-.1-.2-.1-.3h.1s.1 0 0 0v-.1l.1-.1c.2-.2.6-.4.9-.5-.1.1-.1 0 0 0s.3-.1.4-.1c.1 0 .1 0 .2-.1h.6c.1 0 .3-.1.4-.1h-.2c-.1 0-.2.1-.2.1s-.1 0-.2.1c-.1 0-.2 0-.2.1-.3.1-.6.2-1 .4h-.1c-.1.1-.3.2-.3.3 0 .1-.1.1-.2.1s0-.1 0-.1h.1v-.1l.1-.1v-.1s.1-.1.2-.1.1-.1.2-.1c.2-.1.2-.2.4-.2.1 0 .1-.1.2-.1.2-.1.4-.1.5-.2 1-.4 2.1-.6 3-.8l-.1-.1s-.1-.1-.2-.1c0 0-.1 0-.1-.1-.1 0-.1-.1-.1-.1h-.1s-.1-.1-.2-.1c0 0-.1-.1-.2-.1 0 0-.1 0-.1-.1-.1 0-.1-.1-.1-.1h-.2c-.1 0-.1-.1-.1-.1h-.1c-.1 0 0 .1-.1.1V231.9s.1 0 .1-.1.2-.2.2-.2h-.1c0-.1.1-.1.2-.1h.1c.1 0 .2 0 .2.1h.5c.1 0 .1.1.1.1s.1 0 .2.1c0 0 .1.1.2.1l.1.1h.1s.1.1.2.1c.1.1.3.2.5.2.1 0 .1.1.2.1.1.1.1.1.2.1l.1.1c.1.1.1.1.2.1.1.1.1.1.2.1l.1.1c.2.2.6.6.7.9 0 .1 0 .1.1.2v.2l-.1.1v.1s-.1 0-.1.1c-.1.1-.2.1-.3.2l-.2.2c-.1 0-.1.1-.2.1s-.3 0-.4-.1c-.1 0 0 0-.1-.1.1-.1.1-.1.3-.1.1 0 .2.2.4.1-.3 0-.4.1-.5.1m.2-1.5c-.1 0-.1 0 0 0-.2-.2-.2-.3-.3-.3-.2-.1-.4-.3-.5-.4-.1 0-.1-.1-.2-.2h-.1c-.1-.1-.2-.2-.3-.2-.1 0-.1-.1-.1-.1s-.1 0-.1-.1c-.2-.1-.3-.2-.4-.2h-.1c-.1 0-.1-.1-.2-.1h-.2s-.1 0-.1-.1c-.1 0-.2-.1-.3-.1 0 0-.1 0 0 0s.2.1.4.1c.4.1.8.4 1.1.6.2.2.5.4.8.5l1 1c0 .1.1.1.1.2s.1.2.1.2c0 .1 0 .1.1.1 0-.2-.1-.5-.3-.7-.3 0-.4-.1-.4-.2m-1.6-.9c-.1 0-.1-.1 0 0-.1-.1-.1-.1-.2-.1-.2-.1-.3-.2-.6-.3.4.2.7.4 1.1.6h.1c-.3-.1-.3-.2-.4-.2m-.1.3c-.1 0-.2 0-.2.1 0 0 .2 0 .2-.1m0 .2h.2s0 .1.1 0h-.3s-.1-.1 0 0m-.2.1h.1-.1c-.1.1 0 0 0 0m.7-.3c.1.1.3.2.4.3 0 0 0 .1.1.1-.1-.1-.2-.1-.2-.2-.2-.1-.2-.2-.3-.2m.5.4c0-.1 0 .1 0 0 .1 0 .1 0 0 0" class="st2"/><path d="M61.9 235.3v.5h-.1v.1c-.1.1-.2.2-.4.3-.3.2-.8.3-1.2.4H58.7s-.1 0-.2-.1h-.1c-.1 0-.1-.1-.2-.1-.1-.1-.1-.3-.1-.4-.1-.1-.1-.2-.1-.2v-.1c0-.1.1-.2.1-.3l.2-.2s.1-.1.2-.1c.1-.1.3-.2.4-.2.1 0 .2-.1.3-.1.1 0 .2-.1.3-.1h.1s.1 0 .1-.1H60.6l.1.1h.1c.1 0 .3.1.4.1.1 0 .3.3.3.3l.4.2m-3.2.2c-.1 0-.1.1-.2.1l-.2.2c.2-.2.5-.4.7-.5 0 0 .1 0 .1-.1.1-.1.3-.1.4-.2.1 0 .2 0 .2-.1-.2.1-.4.1-.6.2 0 .2-.2.3-.4.4m1.8-.2c-.6.1-1.1.3-1.7.6 0 0 .1.1.1 0H60.3l.1-.1h.5l.1-.1c.1 0 .2-.1.3-.2.1 0 .2-.1.2-.1-.3-.2-.6-.3-.9-.3 0 .1 0 .2-.1.2m.5.6s-.2 0-.1.1c0 0 .2 0 .1-.1m.7-.3c0-.1 0-.1 0 0-.2 0-.1.1 0 0m-.4.2c-.1.1-.1.1 0 0 0 .1 0 0 0 0m.2-.1s-.2.1-.1.1c0 0 .2-.1.1-.1" class="st2"/><path d="M60.2 237c0 .1.1-.1.2 0 .4-.2.7-.2 1-.3 0 .1-.1 0-.1.1-.1 0-.2.1-.4.1h-.1c-.2.1-.5.2-.7.3-.1-.1 0-.2.1-.2m2.8-.3v.3c-.3.1-.6.2-1 .3 0 0-.1 0-.2.1h-.2c0 .1 0 0 .1 0h.9s.1.1.2 0H63.8c.1.1.1.2 0 .4v.1c-.4.3-.8.4-1.3.6h-.1c-.2.1-.4.2-.5.3-.2.1-.3.2-.5.3 0 0-.1 0-.1.1-.1 0-.2.1-.3.2 0-.1-.1-.1-.1-.2s0-.1.1-.2h-.2c-.1-.1 0-.2 0-.2.1-.1.2-.1.3-.2l.6-.3c.1 0 .2 0 .2-.1.1 0 .1-.1.2-.1s.1 0 .2-.1c.1 0 .1 0 .2-.1h.1s.2 0 .3-.1H59.7c-.1-.1-.1-.1-.2-.1-.1-.1 0-.1.1-.2-.1-.1-.2-.1-.3-.3 0-.1.1-.2.3-.3 0 0 .2-.1.3-.1.1 0 .2-.1.2-.1.1-.1.3-.1.4-.2.5-.2 1-.3 1.5-.4h.2c.1 0 .3-.1.4-.1.5.5.4.6.4.7-.1.1 0 .1 0 0M77.1 236.3c-.1-.1-.1 0-.1 0-.1 0-.2-.1-.3 0 .3.1.5.1.8.2.3.1.5.2.7.4v.1c0 .1-.2.2-.2.2 0 .1.1.2 0 .3-.2.1 0-.1-.1-.1s-.1.1-.1.1c.1 0 0 .1 0 .1s.1.1-.1.2h-.2c0-.1.1-.1.1-.2-.1 0-.1-.1-.2-.1h-.1s0-.1 0 0c0 0-.1 0-.2-.1H77c-.1 0-.1-.1-.2-.1H76.2c-.1 0-.3 0-.4-.1-.2 0-.5 0-.8-.1H73.1c-.1 0-.3.1-.4.1h-.2c-.1 0-.1 0-.2.1h-.4c-.1 0-.3.1-.5.2.6.5 1.3.6 1.9.7.4.1.7.1 1 .2h1l-.2.2c0 .1 0 .1-.1.2-.1 0-.1.1-.2.1H73c-.1 0-.2 0-.3-.1h-.1l-.1-.1h-.1l-.1-.1h-.2l-.1-.1h-.1v-.1h-.1v-.1h-.1v-.1h-.1c-.2 0-.3-.1-.4-.2v.1s.1 0 .1.1h.1c.1 0 .1.1.2.1h.2c.1 0 .1 0 .2.1l.1.1h.1c.1 0 .1 0 .2.1.1 0 .3.1.5.1.1 0 .2 0 .3.1.2 0 .5.1.8.1h.9c.1 0 .2-.1.3 0 .1.1-.1.1 0 .2-.1.1-.2.1-.3.1h-.5c-.4 0-.9-.1-1.3-.1-.2 0-.3 0-.5-.1H72c-.1 0-.1-.1-.1-.1h-.1c-.1 0-.1-.1-.1-.1-.2 0-.5-.2-.6-.4-.1-.2-.1-.3-.1-.5 0-.1-.1-.2-.1-.3v-.5c0-.1.1-.1.2-.2 0 0 0-.1.1-.1 0 0 .1 0 .1-.1.1-.1.3-.2.4-.3.1-.1.2-.1.3-.1.2-.1.5-.2.7-.2.1 0 .2 0 .3-.1H74.8c.1 0 .2 0 .2.1h.1s.1 0 .2.1h.4c.2 0 .5.1.7.1H77.3c.1 0 .2 0 .3.1h.1c-.8-.2-.7-.1-.6-.1 0 0 0-.1 0 0 .2 0 .1 0 0 0m.5.9h-.1s-.1 0-.1-.1h-.1l-.1-.1h-.1s-.1 0-.1-.1h-.1c-.1 0-.2-.1-.4-.1-.3-.1-.5-.1-.7-.1-.4 0-.8-.1-1.2-.1H72.6c-.1 0-.3 0-.4.1h-.4l-.1.1h-.1c-.1 0-.1 0-.2.1s-.3.1-.3.2c-.1 0-.2.1-.2.2.7-.3 1.5-.4 2.1-.5H74.3c.1 0 .3.1.4.1.3 0 .5 0 .8.1.2 0 .4 0 .5.1h.1c.1 0 .1 0 .2.1h.2c.1 0 .2.1.3.1h.1l.1.1h.1l.1.1h.1c.2-.3.3-.1.3-.3.1 0 .1 0 0 0 .1 0 .1 0 0 0M77.4 238.9h.2c.1 0 .2-.1.3-.1h.5l.1-.1s0 .1.1.1H78.9c.1 0 .1.2 0 .3l-.1.1c0 .1 0 .1-.1.1-.1.1-.2.1-.3.1h-.5c-.2.1-.5.1-.6.2-1.2.3-2.6.9-3.8 1.6 0 .1.1 0 .1 0h1.6s.2 0 .3-.1H75.8s.1.1.1 0c.1.1.1.2 0 .3-.2.1-.4.1-.7.2h-.7c-.1 0-.4.1-.7.1-.3 0-.8 0-.7-.4-.1-.1-.2-.1-.2-.2.1 0 0-.1 0-.2h.1c0-.1 0-.2.1-.3 0 0 .1 0 0 0 0-.1.1-.1.1-.1v-.1c.3-.3.7-.5 1-.6l.1-.1.1-.1h.1s.1 0 .1-.1c.9-.3 2.9-.9 3.7-1 0 .1-.9.3-1 .3.2 0 .2 0 .1.1m-4 2s-.1.2 0 .2c0-.2.2-.3.2-.4-.1-.1-.2.1-.2.2 0-.1 0-.1 0 0M77.7 242l-.2.1-.1.1c-.2.1-.3.1-.4.2h-.1l-.1.1c-.1 0-.1 0-.2.1h-.1l-.1.1h-.1c-.1.1-.3.2-.5.3 0 0 0 .1.1 0H77.9s.1 0 .1-.1h.1c.1 0 .1 0 .2-.1l.1-.1H78.7s.1 0 .2-.1h.4c.1 0 .2 0 .3-.1.1 0 .1.1.2.1 0 .1.1.3 0 .4-.1.1-.2.2-.4.2h-.1s-.4.1-.5.2l-.2.1c-.1 0-.2.1-.4.1 0 0-.2.1-.3.1-.1 0-.2.1-.3.1h-.1c-.1 0-.4.2-.6.2h-.1c-.1.1-.3.1-.4.2l-.1.1s-.1 0-.2.1c-.1 0-.2.1-.3.1-.1 0-.1.2-.2.1s0-.2 0-.3c0-.1.1-.1.1-.2-.1-.1-.1.1-.2.1v-.2l-.1-.1s.1 0 .1-.1v-.1c.1-.2.4-.3.6-.4H76c-.3 0-.9.2-1-.2v-.4c0-.1-.1-.1-.2-.2.1-.4.6-.7 1.1-.9.1 0 .1-.1.2-.1h.1l.1-.1h.1c.1 0 .2-.1.3-.2h.2c.1 0 .2-.1.4-.2h.1c.1 0 .2-.1.3-.1h.2c.3-.1.5-.1.7-.1h.1c.1 0 .1.1.2.2v.2c.1 0 .1.1.1.2-.1.1-.1.2-.1.3-.5.1-.9.2-1.2.3m-1.9.4c-.1.1-.4.3-.2.3-.1-.1.1-.2.2-.3m0 1.6c.3-.2.6-.3.8-.4.1-.1.2-.1.3-.1h.1c.1 0 .1-.1.2-.1s.1-.1 0 0c-.3.1-.7.3-.9.4-.2 0-.5.1-.5.2M77.6 245.7v-.3c-.1 0-.2.1-.4.2-.1 0-.3.1-.3.2-.1-.1-.1-.1-.1-.2V245.3c-.1-.1-.1.1-.1.1-.1-.1-.1-.2-.1-.3v-.1l.1-.1c.1-.1.3-.3.5-.4.2-.1.5-.3.8-.4h.1c.4-.2.9-.4 1.4-.6.1 0 .2-.1.3-.1h.1c.1-.1.3-.1.4-.2.1 0 .2-.1.2-.1h.1c.1 0 .2-.1.3-.1.1 0 .2-.1.3-.1 0 0 .1 0 .2-.1.1 0 .2 0 .2-.1.2-.1.4-.1.7-.2.2-.1.5-.1.7-.1 0 .1.1.2 0 .3.1.1.1 0 .2.1-.1.1 0 .3-.1.4 0 0-.1.1-.2.1-.1.1-.3.1-.4.2-.2.1-.3.1-.5.2h-.1c-.1 0-.3.1-.4.1-.3.1-.5.2-.7.2 0 0 0 .1-.1 0 0 0-.2.1-.3.1h-.1s-.1 0-.2.1c-.1 0-.1.1-.2 0l.1.1h.7l.1.1c.1 0 .3 0 .4.1v.2c.1.1 0 .2.1.3 0 .1-.1.1-.1.2h-.1v.1H81c0 .1-.1.2-.2.3-.1 0-.2.2-.3.2-.4.2-1 .4-1.4.5H78.8s-.3 0-.3.1h-.6s0 .1 0 0c-.2-.2-.2-.4-.2-.6-.1-.1-.2-.3-.2-.4 0-.1 0 .2.1.2.1.4 0 .2 0 .1m2-.8H78.8c-.3.1-.5.2-.7.3V245.5l.1.1c0 .1-.1.1 0 .2.3 0 .7 0 .9-.1.1 0 .2-.1.2-.1.1 0 .2-.1.2-.1H79.8c.1 0 .1 0 .2-.1h.1c.2-.1.3-.2.5-.3-.1-.1-.3-.1-.4-.1-.3 0-.5-.1-.6-.1m.2 0c.1.1.1 0 .2.1h.1c-.1 0-.3-.1-.4 0-.1 0-.2-.1-.4-.1h-.1c-.1 0-.3-.1-.3 0H79.8m-.6.9H78c.5 0 1.1-.2 1.6-.3.1 0 .1-.1 0 0-.1.2-.3.3-.4.3.1 0 0 0 0 0M79.8 247.7s-.1.1-.2.1c0 0 0 .1-.1 0h-.3s0 .1-.1 0c-.1 0-.5.2-.6-.1v-.1c.1 0 0-.1.2-.1h.1l.6-.3H79.7c.1.1.1.1.1.2.1.2.1.3 0 .3M66.1 244.1v-.2l.1-.1c.1 0 .1-.1.1-.2l.6-.9c.1-.2.2-.3.4-.5.3-.4.6-.8 1-1.3-.1 0-.2.1-.4.1-.5.2-1.1.4-1.6.7-.6.3-1.2.5-1.8.8-.1.1-.2.2-.4.2-.1.1-.3.2-.5.3-.1 0 0 0-.1-.1h-.1c-.1-.1.2-.2 0-.3.2-.2.5-.3.9-.6-.1 0-.2.1-.3.2-.1 0-.1 0-.2.1-.2.1-.3.3-.5.3h-.1s-.1 0-.2.1h-.1c-.1-.1 0-.1.1-.2h-.1c-.1-.2.4-.5.6-.6.2-.1.5-.3.8-.4.2-.1.5-.3.7-.4h.1c.1 0 .1-.1.3-.1h.1l.1-.1h.2c.1 0 .4-.1.6-.2l.2-.1c.1 0 .2-.1.3-.1.2-.1.4-.1.6-.2h.1c.1 0 .3-.1.4-.1h.1c.1 0 .1 0 .2-.1h.1c.1 0 .2 0 .3-.1h.1c.1 0 .4-.1.5-.1h.2c0 .1 0 .1-.1.2.1.1.2 0 .3 0 .1.1 0 .2-.1.3.1 0 .1.1.2.1-.1.1-.1.1-.2.1-.1.3-.3.5-.4.8l-1.5 2.1 1.3-.1h.8l1.4.1H72.6s.2-.1.3-.1c-.1 0-.1 0-.1.1l.5-.1c.2.1-.1.1 0 .2h.3c.1.1-.1 0 0 .1.1 0 0 .1 0 .1 0 .1.1 0 .1 0s-.1.1 0 .1h.1c0 .1-.1.1-.2.1-.1.1-.3.1-.5.1-.5.1-.9.3-1.4.4-1.5.5-2.7 1.1-3.9 1.6-.3.1-.5.3-.9.3 0 0-.1 0-.1-.1-.2 0 0-.1-.1-.1s-.2-.1-.3-.1h-.1v-.1h-.1s0-.1-.1-.1c.1-.1.2-.1.3-.2 0 0 .1-.1.2-.1l.3-.1c.1 0 .2-.1.3-.2.1 0 .2-.1.2-.1l.3-.1c.2-.1.5-.2.7-.3l.2-.1c.1 0 .2-.1.3-.1.2-.1.6-.2.7-.3.1 0 .2-.1.3-.1.1 0 .3-.1.3-.1s.1 0 .2-.1h.1c.1 0 .3-.1.4-.2-.1 0-.2 0-.3.1-.1 0-.2.1-.3.1h-.1c0-.1-.3 0-.3-.1-.8-.1-2 0-3.1.2-.1 0-.1 0-.3-.1l-.1-.1-.3.2zm-1.6-2s-.3.2-.1.1c0 0 .2-.1.1-.1m.2-.1s-.1.1 0 0c.1 0 .1-.1 0 0m1.3-.9s-.1.1 0 0c0 .1.1 0 0 0m2.7-1c-.1 0-.2.1-.3.1h-.1c-.1 0-.3.1-.4.1l-.1.1h-.1c-.1 0-.1.1-.2.1-.4.1-.8.3-1.1.4-.1.1-.3.1-.3.2.2-.1.5-.2.7-.3.2-.1.5-.2.5-.2l.1-.1.9-.3h.2c.1 0 .2-.1.3-.1 0-.1.2-.1.2-.1-.1.1-.2.1-.3.1m-3.5 1.9s-.2.1-.1.1c0 0 .2-.1.1-.1m.2-.1c-.2.1-.2.1 0 0-.1.1.1 0 0 0m.2-.1c-.1 0-.3.1-.1.1.1-.1.4-.2.3-.2-.1 0-.1.1-.2.1zm.4-.2c-.1.1-.2.1 0 0-.1.1.1 0 0 0m.2-.1c-.1 0-.1.1 0 0 0 .1 0 0 0 0m.2-.1c-.1.1-.2.1 0 0 0 .1 0 0 0 0m-2.3 1.7c-.1 0-.1 0 0 0 .1-.2 0 0 0 0m.3-.2s0-.1 0 0c.1-.1.1 0 0 0m3.9-2.2c.1 0 .2-.1.4-.1 0 0 .1-.1 0 0-.2 0-.4.1-.4.1-.1 0-.1.1 0 0m.8.3s-.1.1 0 .1c.1-.2.3-.3.2-.4-.1.1-.1.1-.2.1 0 0 0 .1.1.1-.2 0-.1 0-.1.1m-3.2 2.9.1-.1c.1-.1.2-.2.2-.3.1-.1.2-.2.2-.3.4-.4.6-.8 1-1.2 0 .1-.1.1-.1.2l-.3.4h-.1v.1l-.1.1-.2.2v.1s-.1 0-.1.1v.1s-.1 0-.1.1-.1.2-.2.3c0 .1-.1.2-.2.3l-.1-.1zm5.8-.4H68.3c.7 0 1.3 0 2 .1h.5c.1 0 .3.1.5.1.3.1.6.1.9.1-.2-.3-.4-.3-.5-.3m.6.8h.1-.1m-.6.7s-.2 0 0 0c0 0 .1 0 0 0m1.1-.4c.1 0 .2-.1.3-.1-.4.1-.8.2-1 .3 0 0-.2 0-.2.1h-.1s-.1 0 0 0c.3-.1.7-.2 1-.3m.5-.1c-.1 0-.2 0 0 0-.1 0 0 0 0 0M73.6 247.8c0 .1 0 .1-.1.2v.1c-.1.1-.3.1-.5.2-1 .3-2 .7-3 1.1-.2.1-.3.1-.5.3-.1-.1-.1-.1-.1-.2v-.1c0-.1-.1-.1-.1-.2.5-.5 1.2-.6 1.8-.9-.2 0-.5.1-.8.3-.4.1-.8.3-1 .6 0-.1-.1-.1-.1-.3.1-.2.4-.3.6-.4 0-.1-.1 0-.1 0H68.9s0-.1 0 0c0 0-.1 0-.1-.1s-.1-.1-.1-.1V247.4s.1 0 .1-.1v-.1c0-.1.1-.1.1-.2.1-.2.4-.4.7-.5.1 0 .4-.1.5-.1h.4c.2 0 .3-.1.5-.1h.4c.4 0 .7 0 1.1.1h.2l.1.1h.1s.1 0 .1.1c0 0 .1 0 .1.1.1.1.1.2.1.3l.1.1s0 .1.1.2-.1.3-.1.4h.6c-.1.1-.2 0-.3.1.1 0 .2-.1.3 0 .1.1 0 0-.1.1-.4.1-.7.2-1.1.3-.1.1.1.1.1 0 .4-.2.9-.3 1.3-.4-.5-.2-.5-.1-.5 0m-4.4-.8h.2c.1 0 .2-.1.3-.1h.1l.2-.1c.1 0 .2-.1.2-.1h-.1c-.2 0-.4.1-.6.1-.1 0-.2 0-.2.1 0 0-.1 0-.1.1-.2 0-.3.1-.3.2.1-.1.2-.2.3-.2m2.6.3H70.6c-.1 0-.1 0-.1.1H70.2l-.1.1c-.2 0-.3.1-.5.1-.3.1-.6.2-.9.4.1.1.2.1.2.1H69.8c.2 0 .3-.1.5 0h.7c.1 0 .1 0 .2-.1h.1c.1 0 .1-.1.2-.1.3-.1.6-.2.8-.3.1 0-.1-.1-.1-.1-.1-.1-.2-.1-.4-.2m.3-.2c-.1 0-.1 0 0 0h-.3c-.4 0-.9 0-1.3.1 0 0-.1 0 0 0h1.7c.1 0 .2.1.3.1-.1-.2-.3-.1-.4-.2 0 .1 0 0 0 0M73.7 249.5c0 .1-.1.1-.2.2-.1 0-.1 0-.2.1h-.1s-.2.1-.3.1c-.2.1-.5.2-.8.3-.1.1-.2.1-.2.1h-.1s-.1 0-.1.1c-.1 0-.1.1-.3.1-.1.1-.3.2-.5.3-.1.1-.1.2-.2.2l-.2-.2s.1 0 .1-.1v-.1c0-.1.1-.1.1-.1-.1-.1-.1.2-.2.1s-.1-.2 0-.3v-.1h.1v-.1s0-.1.1-.1c.1-.1.3-.2.5-.4.1 0 .3-.1.4-.2l.1-.1.1-.1.1-.1c.1 0 .2 0 .3-.1h.2c.1 0 .1-.1.2-.1 0 0 .2-.1.3-.1h.5c.1 0 .1.2.2.1.1.1 0 .1-.1.2s.1 0 .1.1c-.1.1 0 .2 0 .3h.1m.7-.6c.1-.2.2-.2.4-.4.1-.1.2-.1.3-.1h.2c0 .1.1.1.1.1v.1c0 .1-.2.1-.1.2-.3.1-.6.2-.9.4 0-.1.1-.2 0-.3M75.6 249.7h.2c.1 0 .2-.1.3-.1h.5l.1-.1s0 .1.1.1H77.1c.1 0 .1.2 0 .3l-.1.1c0 .1 0 .1-.1.1-.1.1-.2.1-.3.1h-.5c-.2.1-.5.1-.6.2-1.2.3-2.6.9-3.8 1.6 0 .1.1 0 .1 0h1.6s.2 0 .3-.1H74s.1.1.1 0c.1.1.1.2 0 .3-.2.1-.4.1-.7.2h-.6c-.1 0-.4.1-.7.1-.3 0-.8 0-.7-.4-.1 0-.2-.1-.2-.2.1 0 0-.1 0-.2s0-.2.1-.3c0 0 .1 0 0 0 0-.1.1-.1.1-.1v-.1c.3-.3.7-.5 1-.6l.1-.1.1-.1h.1s.1 0 .1-.1c.9-.3 2.9-.9 3.7-1 0 .1-.9.3-1 .3.2.1.1.1.1.1-.1 0 0 0 0 0m-4 2s-.1.2 0 .2c0-.2.2-.3.2-.4-.1 0-.2.1-.2.2M77.2 251.7h.2c.1 0 .2-.1.3-.1h.5l.1-.1s0 .1.1.1H78.7c.1 0 .1.2 0 .3l-.1.1c0 .1 0 .1-.1.1-.1.1-.2.1-.3.1h-.5c-.2.1-.5.1-.6.2-1.2.3-2.6.9-3.8 1.6 0 .1.1 0 .1 0H75s.2 0 .3-.1H75.6s.1.1.1 0c.1.1.1.2 0 .3-.2.1-.4.1-.7.2h-.6c-.1 0-.4.1-.7.1-.3 0-.8 0-.7-.4-.1 0-.2-.1-.2-.2.1 0 0-.1 0-.2s0-.2.1-.3c0 0 .1 0 0 0 0-.1.1-.1.1-.1v-.1c.3-.3.7-.5 1-.6l.1-.1.1-.1h.1s.1 0 .1-.1c.9-.3 2.9-.9 3.7-1 0 .1-.9.3-1 .3.2 0 .1 0 .1.1-.1 0 0 0 0 0m-4.1 1.9s-.1.2 0 .2c0-.2.2-.3.2-.4l-.2.2c.1 0 .1 0 0 0M79.2 255v.5h-.1v.1c-.1.1-.3.3-.5.4-.4.2-1 .4-1.4.5h-1.7c-.1 0-.1-.1-.2-.1h-.1c-.1 0-.2-.1-.2-.1-.2-.2-.1-.3-.2-.4-.1-.1-.1-.2-.1-.3v-.1c0-.1.1-.2.2-.3v-.1c.1-.1.2-.1.3-.2.1-.1.1-.1.3-.2.2-.1.3-.2.5-.2.1 0 .3-.1.4-.1h.1c.1 0 .3-.1.4-.1h.1l.1-.1H77.7c.1 0 .1 0 .2.1h.5l.1.1h.1c.1 0 .3.1.4.2l.4.4c-.2-.1-.2-.1-.2 0m-3.7.1c0 .1-.1 0 0 0-.1 0-.2.1-.2.1-.1.1-.3.2-.2.3.2-.2.6-.5.9-.5 0 0 .1 0 .1-.1.2-.1.3-.1.5-.2.1 0 .3 0 .3-.1-.2.1-.5.1-.8.3-.2 0-.4.1-.6.2m2.1-.2c-.6.2-1.3.4-2 .7 0 .1.1.1.1.1H77.3s.1 0 .1-.1h.5s.1-.1.2-.1c.1-.1.3-.1.4-.2.1 0 .2-.1.2-.2-.3-.3-.7-.3-1-.4 0 .1 0 .2-.1.2m.6.8s-.2 0-.1.1c-.1-.1.2-.1.1-.1m.8-.5s-.1 0 0 0c-.2.1-.2.2 0 0-.1 0-.1 0 0 0m-.5.4c-.1 0-.1.1 0 0 0 0 0-.1 0 0m.3-.2s-.3.2-.2.1c0 0 .3-.1.2-.1M77.1 258.5c.4 0 .7 0 1.1-.1.1 0 .2-.1.2-.1h.4c0 .1-.1.1-.2.1s-.2.1-.3.1c-.1 0-.2.1-.3.1-.1 0-.1 0-.2.1h-.7s-.2 0-.3-.1v-.1c-.1-.1-.1-.1-.1-.2V258c0-.1.1-.2.2-.3.3-.3.7-.4 1-.6.1-.1.2-.1.3-.1h.1l.4-.1h.1l.4-.1h.1c.1 0 .3-.1.5-.2.3-.1.6-.2.8-.2.1 0 .3 0 .4-.1l-.1-.1-.1-.1s-.3-.2-.3-.3c.1 0 .1-.1.1 0 0-.1 0-.2.1-.3.1 0 .2.1.3.2.1.1.3.2.4.3 0 0 .1.1 0 .1h1.8s.1.1.1 0l.1.1-.1.1h-.1v.1c0 .1-.1 0-.1.1s.2 0 .2.1-.1.2-.2.2-.2 0-.3.1c-.2 0-.4.1-.6.1.2.3.4.5.6.7 0 0 0 .1-.1.1v.1l-.8-.9c0 .1.1.1.1.2.2.2.5.5.5.7-.1 0-.2-.1-.2-.2-.2-.2-.4-.5-.6-.7-.1 0-.2.1-.4.1h-.2s-.2.1-.3.1c-.1 0-.2.1-.3.1H80s-.1 0-.1.1h-.1s-.1.1-.2.1h-.1c-.1 0-.2.1-.2.1l-.2.1c-.3.1-.7.3-1 .4-.1.1.1 0 .1 0h.2c.1 0 .2 0 .3-.1h.1s0-.1.1 0h.2c.1 0 .3-.1.3 0-.1.1-.3.1-.4.1h-.4c-.1 0-.1 0-.1.1h-.4l-1 .3c0-.1 0-.1 0 0-.1-.1-.1-.1 0 0zm-.1-.5c-.1 0-.1.1 0 .2.1 0 .1-.1 0-.2m3.9-2.2c-.1-.2-.1-.1-.2-.1 0 0 0-.2-.1-.1v.1c.1 0 .2.1.3.1 0 .1.1.2.2.2l-.2-.2s0 .1 0 0M85.8 250.2s-.1 0 0 0c0 0 .1 0 0 0m-.3.1s-.1 0 0 0c-.1 0-.1 0 0 0m.4-.1h.1-.1c.1-.1 0 0 0 0m-.5.1c-.1 0-.1 0 0 0-.1 0 0 0 0 0m.8-.1h.1s-.1-.1-.1 0m-.4 0s.1 0 0 0c.1 0 .1 0 0 0m0 0h-.2.2m.8 0c.1 0 .1 0 0 0zm.1 0h.1-.1m1 .2h-.2c.1-.1.1-.1.2 0m.8.2c0 .1-.1 0-.2 0h.2m.1.1h-.1c0-.1.1 0 .1 0m-3.3-.3c-.1 0-.1 0-.2.1 0 0 .1-.1.2-.1m2.7.1h-.1.1m2.4 2.9c.1 0 .1.1.1.1-.1.1-.1 0-.1-.1m-5-2.8h-.1.1m.5.1c0-.1.1 0 0 0m4.1 2.9s0 .1 0 0c0 .1 0 0 0 0m-3.7-2.9c0 .1 0 0 0 0m3.5 2.7c.1 0 .1.1 0 0 0 .1 0 .1 0 0m-3.1-2.6h-.2.2m1.1.6c-.1 0-.1-.1-.2-.1.1 0 .1 0 .2.1m-1.9-.7h.1-.1m2.7 1.4c-.1 0-.1 0 0 0-.1-.1 0-.1 0 0m-2.9-1.9h.1-.1c.1 0 .1 0 0 0 .1 0 0 0 0 0m-.4.2c.1-.1.1 0 0 0 .1-.1.1-.1.1 0h-.1c.1 0 .3-.1.3-.1h.1-.1.1c.2 0 .4-.1.6-.1h.2-.1.1-.1c0 .1.2 0 .3.1h-.2.1-.2c.3 0 .5.1.7.1.2 0 .3.1.5.2H87.9h-.1c.1 0 .2.1.3.1 0 0-.1-.1 0 0h.1c.1 0 .2.1.3.1h-.1.2-.1c.1 0 .2.1.3.1h.1c0-.1-.2-.1-.2-.1h.1c.2.1.4.2.6.4-.1 0-.2-.1-.3-.1 0 0 .1 0 .1.1h.1l.1.1.1.1c.3.2.4.5.7.7v-.1s.1 0 .1.1c0-.1-.1-.1-.1-.1l-.1-.1c.2 0 .2.2.4.3 0 0-.1 0 0 0l-.1-.1c0 .1.1.2.2.2v-.1c.1.1.2.3.2.3v.2c0 .1.2.1 0 .2v.1c0-.1.2 0 .1.1h.1-.1s-.1.1 0 .1c0 0-.1.1 0 .1-.1.1-.1.1-.1.2h-.1c0 .1-.1.1-.1.1s0 .1-.1.1c.1 0 0 0 .1.1-.2 0-.3-.1-.4-.2v-.1h-.1v.1c-.1 0-.1 0-.1-.1-.1 0-.2 0-.2-.1h-.1l.1.1c-.1 0 0 0 0 .1-.1 0-.1-.2-.2-.2 0 .1-.2.1-.1 0h-.1c0-.1 0-.2-.1-.2h.1c-.1-.2-.3-.3-.5-.5 0 0 0-.1-.1-.1v-.1l-.2-.2c-.1-.1-.2-.2-.3-.2.1.1.3.2.4.3 0-.1-.1-.2-.2-.3l-.2-.2c-.1-.1-.2-.1-.2-.1-.3-.2-.4-.3-.7-.4 0 0 .1 0 .1.1 0 0-.1 0-.1-.1 0 0-.1-.1 0 0h.1c-.1-.1-.1-.1-.2-.1 0-.1-.2-.1-.3-.2-.2-.1-.4-.1-.6-.2-.1 0-.2 0-.2-.1H86h.1-.2.1-.2.1-.2.2-.4.2-.2.2-.2c.1 0 .1 0 .2-.1h-.1.1c-.6-.2-.4-.3-.4-.3-.1 0 0 0 0 0m5.3 2.2s.1-.1 0 0m-1.3.3c0-.1 0-.1 0 0 0-.1 0 0 0 0m-.5-.6s.1.1 0 0c.1 0 0 0 0 0m-2.7-2.1s.1 0 0 0M86 250.2c0 .1.1.1 0 0 .1 0 .1 0 0 0M85.5 250.3h-.1c0 .1.1 0 .1 0m1.2 0c.1 0 .1 0 0 0 .1 0 0 0 0 0m.3 0c-.1 0 0 0 0 0m3.5 2.1c.1 0 0 .1 0 0 .1 0 0 0 0 0m.2.5c-.1 0-.1.1 0 0m-.1.1s0-.1 0 0c0-.1-.1 0 0 0M89.5 252.9c0 .1 0 .1 0 0 0 .1.1 0 0 0m.2.3c0-.1-.1 0 0 0m-1-1c.1 0 .1 0 0 0 .1 0 .1-.1 0 0 .1-.1.1-.1 0 0m.7 1s.1 0 0 0c.1 0 0-.1 0 0 .1-.1.1-.1 0 0 .1-.1.1-.2 0-.2v.2m-2.2-2.2c0 .1-.1 0 0 0-.1 0 0 0 0 0M85.4 250.3s.1 0 0 0c.1 0 .1 0 0 0 .1 0 .1 0 0 0 0 0 .1 0 0 0 .1 0 .1 0 0 0 .1 0 0 0 0 0m2.8.2c0 .1 0 .1 0 0-.1 0 0 .1 0 0-.2 0-.2-.1-.4-.1h.1c.1.1.2.1.3.1m-3.4.1c.1 0 .1 0 0 0 0 0 .1 0 0 0 .1 0 .1 0 0 0m5.2 1.1c.1 0 0 0 0 0m.8 1.3s-.1.1 0 0c-.1.1-.1 0 0 0m-4.8-2.3h-.1.1M85.2 249.2v.7s-.1 0-.1.1 0 .1-.1.1v.1c-.1.2-.3.3-.6.5-.5.3-1.3.5-1.9.6h-.4c-.1 0-.2.1-.3.1h-.4c-.1 0-.2 0-.2.1h-1c-.1 0-.2-.1-.3-.1h-.2c-.1 0-.3-.1-.3-.2-.3-.2-.2-.4-.3-.6-.1-.1-.2-.3-.2-.4v-.1l-.1-.1c0-.1.1-.3.2-.5v-.1c.1-.1.2-.1.3-.3.1-.1.1-.1.3-.2.2-.1.4-.3.7-.4.1 0 .4-.1.5-.2l.1-.1c.1 0 .4-.1.6-.2h.2c.1 0 .1-.1.1-.1h.2l.1-.1c.2 0 .4-.1.5-.1.1 0 .2.1.2.1h.9c.1 0 .1.1.1.1h.1s0 .1.1.1c.2 0 .4.1.6.2.1.1.5.4.6.5-.1.4 0 .4 0 .5m-5.3.3h-.1l-.1.1c-.1.1-.3.3-.2.4.3-.3.8-.6 1.2-.7.1 0 .1-.1.1-.1l.6-.3c.1-.1.4-.1.4-.2-.3.1-.7.2-1 .4-.3.1-.6.2-.9.4m3-.3c-.9.2-1.8.6-2.7 1 0 .1.1.1.1.1h.4l.1-.1h.1c.1 0 .1 0 .1-.1h1s.1 0 .1-.1c0 0 .1 0 .1-.1l.1-.1h.4c.1 0 .1-.1.1-.1h.1c.1 0 .2-.1.3-.1H83.5l.2-.1h.1c.2-.1.3-.2.5-.3.1-.1.3-.1.3-.2-.5-.3-1-.4-1.5-.5-.1.5 0 .6-.2.7m.9 1c-.1.1-.3 0-.2.1.1 0 .4-.1.2-.1m1.1-.7s-.1 0 0 0c-.2.2-.2.3 0 0 0 .1 0 .1 0 0m-.7.5s-.1.1 0 0c0 .1.1 0 0 0m.4-.2c-.1 0-.4.2-.2.2.1-.1.4-.2.2-.2" class="st2"/><path d="M90.3 254.4v.7s-.1 0-.1.1 0 .1-.1.1v.1c-.1.2-.3.3-.6.5-.5.3-1.3.5-1.9.6h-.4c-.1 0-.2.1-.3.1h-.4c-.1 0-.2 0-.2.1h-1c-.1 0-.2-.1-.3-.1h-.2c-.1 0-.3-.1-.3-.2-.3-.2-.2-.4-.3-.6-.1-.1-.2-.3-.2-.4v-.1l-.1-.1c0-.1.1-.3.2-.5v-.1c.1-.1.2-.1.3-.3.1-.1.1-.1.3-.2.2-.1.4-.3.7-.4.1 0 .4-.1.5-.2l.1-.1c.1 0 .4-.1.6-.2h.2c.1 0 .1-.1.1-.1h.2l.1-.1c.2 0 .4-.1.5-.1.1 0 .2.1.2.1h.9c.1 0 .1.1.1.1h.1s0 .1.1.1c.2 0 .4.1.6.2.1.1.5.4.6.5-.1.4 0 .5 0 .5m-5.3.3h-.1l-.1.1c-.1.1-.3.3-.2.4.3-.3.8-.6 1.2-.7.1 0 .1-.1.1-.1l.6-.3c.1-.1.4-.1.4-.2-.3.1-.7.2-1 .4-.4.1-.6.3-.9.4m3-.3c-.9.2-1.8.6-2.7 1 0 .1.1.1.1.1h.4l.1-.1h.1c.1 0 .1 0 .1-.1h1s.1 0 .1-.1c0 0 .1 0 .1-.1l.1-.1h.4c.1 0 .1-.1.1-.1h.1c.1 0 .2-.1.3-.1H88.6l.2-.1h.1c.2-.1.3-.2.5-.3.1-.1.3-.1.3-.2-.5-.3-1-.4-1.5-.5-.1.5 0 .6-.2.7m.9 1.1c-.1.1-.3 0-.2.1 0-.1.4-.1.2-.1m1.1-.7s-.1 0 0 0c-.3.1-.2.2 0 0 0 0-.1 0 0 0m-.7.5c-.1 0-.1.1 0 0 0 0 .1-.1 0 0m.4-.2c-.1 0-.4.2-.2.2.1-.1.4-.3.2-.2M87.4 247.6s-.1 0-.1.1c.1-.1.3-.1.1-.1M87.6 247.6c.1 0 .1-.1.2-.1-.1 0-.2.1-.2.1m-.7.3c0 .1 0 .1 0 0 0 .1 0 .1 0 0 0 .1 0 .1 0 0 0 .1 0 .1 0 0 0 .1 0 .1 0 0m1.1-.4.2-.1c-.1 0-.2 0-.2.1m-.5.1s.1-.1.1 0h-.1m0 .1c.1 0 0 0 0 0-.1.1-.2.1-.3.1.1-.1.3-.1.3-.1m1.1-.4c.1 0 .1 0 0 0zm.2 0h.2-.2m1.6.4c-.1 0-.2-.1-.3-.1.1 0 .2.1.3.1m.8.9c-.1 0-.1-.1-.1-.2l.1.2m.1.2c-.1 0-.1-.1-.1-.1.1 0 .1.1.1.1m-4.4-.6c0 .1-.1.1-.2.2 0-.1.1-.2.2-.2m3.9-.1s-.1 0-.1-.1c0 .1 0 .1.1.1m-4.7.8c.1 0 .1 0 0 0 .1 0 .1.1 0 0m5.6 3.8v.2-.2m-4.2-4.2s-.1.1-.2.1c0-.1.1-.1.2-.1m-.4.3s.1 0 0 0c.1 0 0 0 0 0m.9-.5s.1 0 0 0m3.5 4.3s0 .1 0 0c0 .1 0 .1 0 0m-2.9-4.5c0 .1 0 .1 0 0-.1.1 0 0 0 0m2.9 4.2v.1c-.1 0-.1-.1 0-.1 0 0-.1 0 0 0 0 .1 0 0 0 0m-2.5-4.2c-.1 0-.1 0-.2.1.1-.1.2-.1.2-.1m1.3.6c-.1 0-.1-.1-.2-.2l.2.2m-2.3-.3s.1 0 .1-.1c.1 0 0 .1-.1.1m2.9 1.5c-.1 0 0-.1-.1-.1l.1.1m.1 1.1v-.1.1m-.4-1.4c0 .1 0 .1 0 0 0 .1-.1.1 0 0m-3.2-1.9s.1 0 .1-.1c0 .1-.1.1-.1.1m-.5.4s0 .1 0 0c-.1 0 0-.1 0-.1v.1l.1-.1s0 .1-.1.1c.1-.1.3-.2.3-.2h.1-.1l.1-.1c.2-.1.5-.2.8-.3-.1 0 0 0 0 0h.2-.1.2-.1c.1.1.3-.1.5 0h-.3.1c-.1-.1-.2.1-.3 0h.6c.2 0 .4 0 .6.1.2 0 .3.1.4.2.1.1.3.2.4.3h.1l.2.2-.1-.1c0 .1.1.1.2.2l.2.2c0-.1-.1-.2 0-.1 0 0 .1 0 .1.1l.3.3h-.1l.1.1.1.1h-.1c.1.1.1.2.2.3 0 0 0 .1.1.1 0-.1-.1-.2-.1-.3 0-.1.1.1.1.1.1.3.2.5.3.8-.1-.1-.1-.2-.1-.3 0 0 .1.1 0 .1v.2s.1.1 0 .1c.1.3.1.7.2 1.1v-.1.1-.4c.1.1.1.3.1.5v-.1.3-.1.4l-.1.1c0 .1.1.2 0 .2v.1s.1.1 0 .1v.1s-.1.1 0 .1c0 0-.1 0 0 .1-.1 0-.1.1-.1.1v-.1s-.1 0-.1.1h-.1v.1c-.1-.1-.1-.3-.1-.5v-.1.1s-.1-.1 0-.2c0-.1-.1-.1-.1-.2h-.1c0 .1 0 .2.1.2v.1c-.1-.1 0-.2-.1-.3 0 .1-.1-.1-.1-.1v-.4.1c0-.3-.1-.7-.2-1v-.2c-.1-.2-.1-.2-.1-.4-.1-.1-.1-.3-.2-.4.1.2.2.4.3.7 0-.1-.1-.3-.1-.5 0-.1-.1-.2-.1-.3 0-.1-.1-.2-.1-.3-.1-.2-.2-.3-.3-.4-.1-.1-.2-.2-.4-.3l.1.1-.1-.1s-.1-.1 0-.1l.1.1c-.1-.1-.2-.1-.2-.1s-.1-.1-.2-.1-.2 0-.2-.1c-.2 0-.5 0-.8.1-.1 0-.2.1-.3 0 0 0-.2.1-.3.1l.1-.1c-.1 0-.1 0-.3.1h.2c0 .1-.2.1-.3.1h.1c-.1 0-.2 0-.2.1 0-.1.1 0 .2-.1-.2 0-.3.1-.5.2h-.1.1-.1.1s-.1 0-.2.1c0-.1-.1 0-.2 0l.1-.1h-.1v-.1c-.1 0-.1.1-.2.1h.1c-.1 0-.2.1-.2.1 0-.1.1-.1.2-.2l-.1.1c0-.1 0 0 0 0 0-.1.1 0 .1-.1-.3-.2-.1-.4-.1-.5.1 0 .1.1 0 0 0 .1 0 .1-.1.1 0 0 .1 0 .1-.1m5.1 3.8s0 .1 0 0c0 .1 0 0 0 0m-.7-.5c0-.1 0-.1 0 0 0-.1 0 0 0 0m-.2-1.1v.1-.1s-.1 0 0 0m-3.2-2.7s.1 0 0 0c0 0 0-.1 0 0m.3-.1h-.1.1m-.4.1h.1-.1m1.2-.2h.1-.1m-1.8.6c-.1 0-.1 0 0 0-.1 0-.1.1-.1.1-.1 0 0-.1.1-.1m1.6-.6h.1-.1m.5 0h-.1.1m2.7 4.3v.1-.1m-.1.6s0 .1 0 0v-.1.1m-2.8-4.3s-.1 0 0 0c-.1 0 0 0 0 0m2.3 3.5s0 .1 0 0v.2-.2m0 .5c0-.1 0-.1 0 0m-.4-1.9c0 .1 0 .1 0 0 .1.1.1 0 0 0m.3 1.7c.1 0 .1-.2 0-.2v.2-.1.1m-1.6-3.6c-.1 0-.1-.1 0 0-.1-.1-.1 0 0 0M87 248l.1-.1-.1.1c.1-.1.1 0 0 0 .1 0 0 0 0 0 .1 0 .1-.1 0 0 .1 0 .1 0 0 0 .1 0 .1 0 0 0m4 .3s-.1 0-.1-.1c0 .1.1.2.1.1l-.4-.4s.1 0 .1.1l.2.2s0 .1.1.1m-4.5.3s.1-.1 0 0c0 0-.1 0 0 0-.1.1-.1.1 0 0-.1.1-.1.1 0 0-.1 0 0 0 0 0m5.5 2.2s-.1-.1 0 0c0-.1 0-.1 0 0m0 1.7s-.1 0 0 0c-.1 0-.1 0 0 0m-4.8-3.9c0-.1.1 0 0 0 .1 0 .1-.1 0 0m.9-.3-.1.1c0-.1.1-.1.1-.1s.1 0 0 0M93.8 253.7s0 .1 0 0m0-.2c-.1-.1-.1-.1 0 0 0-.1 0-.1 0 0m0 .3v.1s-.1 0 0-.1c0 .1-.1 0 0 0m-.1-.4s0-.1 0 0c0-.1 0 0 0 0s0-.1 0 0c0-.1 0-.1 0 0 0-.1 0-.1 0 0m0 .6s0 .1 0 0c0 .1 0 .1 0 0 0 .1 0 .1 0 0 0 .1 0 .1 0 0 0 .1 0 .1 0 0 0 .1 0 .1 0 0m0-.2v-.2.2m0 .3c0 .1 0 0 0 0zm0 0c0 .1 0 .1 0 0m.4-.1c.1 0 0 0 0 0-.1.1 0 0 0 0m.1-.1c0 .1 0 .1 0 0-.1.1 0 .1 0 0m-.6-.7v-.2.2m.3 1c-.1 0 0 0 0 0m-.4-1.7v.1-.1m.1-.6h-.1.1m-.7 1.4v-.1c.1 0 .1.1 0 .1M92.8 253.7c.1 0 0 .1 0 0m.9-1.9c0-.1 0 0 0 0m-.9 2.4v-.1.1m1.2-2.3s.1 0 0 0c.1.1.1 0 0 0m-1.1 2.8c-.1 0-.1-.1-.1-.2 0 .1 0 .1.1.2m1.6 0c0 .1-.1.1-.2.1 0 0 .1 0 .2-.1m-1.8-1v.1-.1m2.6.1v.1-.1m-.2-1.1.1.1c-.1 0-.1-.1-.1-.1m.3 1.5c0-.1 0-.1 0 0 0-.1 0 0 0 0m-1.7-.5c.1 0 0 0 0 0m-.1-.4c.1 0 .1 0 0 0 .1 0 .1 0 0 0 .1.1.1.1 0 .1v-.1 1-.1.1H93.9s.1 0 .1-.1c0 0-.1 0 0 0 .1-.1.1-.1.1-.2l.1-.1v-.1s0 .1-.1.1v-.1c.1-.1.2-.2.1-.3v.1-.1s0-.1 0 0v-.2c0-.1-.1-.2-.2-.3 0 0 0 .1.1.1l.1.1-.2-.2.1.1c0-.1-.1-.1-.1-.2l-.2-.2v-.1l-.1-.1v-.1h-.1v-.1h-.1s0-.1 0 0v-.2h.1v-.2h-.1.2c.1 0 .2.1.2.1v.1-.1s.1 0 .1.1c.1 0 .1.1.2.1h.1c-.1 0-.1-.1-.2-.1v-.1c.1 0 .1.1.2.2 0-.1.1 0 .1.1h.1c0 .1.1.2.2.2 0 0-.1 0-.1-.1l.3.3c.1.1.2.3.3.4V253.7c0 .1-.1.3-.2.4.1-.2.2-.4.2-.7-.1.1 0 .3-.1.4 0 .1-.1.2-.2.3-.1.1-.1.2-.2.2-.1.1-.3.2-.4.3-.1 0-.1.1-.2.1h-.4.2s-.1.1-.2.1h-.1.1c-.1 0-.3 0-.3.1-.1 0-.4 0-.5-.1-.1 0-.1-.1-.1-.1 0-.1 0-.1-.1-.2v-.8c.1 0 0 0 0 .1v-.2.1c-.1-.1 0-.2 0-.2l-.1.1c0-.1.1-.1.1-.2v.1c.1-.1.1-.2.1-.4v.2l.1-.1c.1 0 .1-.1.1-.1v.1c.1 0 0 .1 0 .1v-.1s0-.1.1-.1v.2-.1.1c.4-.2.4-.1.5 0 0 0-.1 0 0 0-.1-.1 0-.1 0 0 0-.1 0-.1 0 0m.3-.8s0-.1 0 0c0 0-.1 0 0 0m.8 0s0 .1 0 0m.6.8v-.1c-.1 0-.1.1 0 .1 0 .1 0 0 0 0m-1.6.7c-.1 0-.1 0 0 0-.1 0 0 0 0 0m-.1-.1s0 .1 0 0c0 .1 0 0 0 0m0 .3s0 .1 0 0m0-.8c0-.1 0 0 0 0m0 .9c0-.1 0 0 0 0m.4-1.7c-.1 0-.1 0 0 0-.1 0 0 0 0 0m-.3-.4s0 .1 0 0m.1 0s-.1 0 0 0M94.6 252.4c-.1 0-.1 0 0 0 0-.1-.1-.1-.1-.1s0 .1.1.1m-.4-.3c.1.1.1 0 0 0m1.1 1.4c-.1 0-.1 0 0 0-.1 0-.1 0 0 0m-.9-1.3s.1 0 0 0c.1 0 0 .1 0 0 0 .1 0 .1.1.1l-.1-.1c.1.1.1 0 0 0 .1 0 .1 0 0 0m-.9 2.8h-.1.1M93.7 253.4c-.1.1 0 0 0 0-.1 0 0 0 0 0s-.1 0 0 0c-.1 0 0 0 0 0-.1 0-.1 0 0 0-.1 0-.1 0 0 0-.1 0 0 0 0 0m.3.7-.1.1h-.1.1c0-.1.1-.1.1-.1m-.5-1.3c0 .1 0 .1 0 0 .1 0 0 0 0 0 0 .1 0 0 0 0m.8.4s.1 0 0 0c.1 0 .1 0 0 0m-.7-1c0-.1.1 0 0 0m-.6 1c.1 0 0 0 0 0m-.2.6v-.1.1s0 .1 0 0M84.6 252.1s.1 0 0 0m0 0c-.1 0-.1 0 0 0-.1 0-.1 0 0 0-.1 0 0 0 0 0m.2 0s.1 0 0 0c.1-.1.1 0 0 0 0-.1.1-.1 0 0 .1-.1.1 0 0 0 .1 0 .1 0 0 0m-.2 0s-.1 0 0 0c0-.1 0 0 0 0m0-.1h.1c0 .1-.1 0-.1 0m-.4.1c-.1 0 0 0 0 0zm-.5.1c0-.1 0-.1 0 0 0-.1 0-.1 0 0m-.4-.2c.1.1 0 .1 0 0m-.3-.5.3.5-.3-.5m1.9.5h.1-.1m-1.4.2s0-.1 0 0m1.8-.5c0 .1 0 0 0 0 0 .1 0 0 0 0 0 .1 0 0 0 0m-.3-.2c.1 0 0 0 0 0m.1-.1c0-.1 0 0 0 0M85.2 251.7c-.1 0 0-.1 0 0 0 0 0-.1 0 0M85 251.8s.1 0 0 0c.1 0 0 0 0 0m-1.1-.5h.1-.1m-.9.3c0-.1.1-.1.1-.1 0 .1-.1 0-.1.1m1.5-.4c-.1 0 0 0 0 0m-.9 1c0 .1 0 .1 0 0 0 .1 0 0 0 0m.7.1s-.1 0 0 0c-.1 0 0 0 0 0m-.8.1s0 .1 0 0c0 .1 0 .1 0 0m1.2-.3c-.1 0-.1 0 0 0-.1 0-.1 0 0 0-.1 0-.1 0 0 0-.1-.1-.1 0 0 0m.2-.1s0-.1 0 0c-.1 0-.1 0 0 0-.1 0-.1 0 0 0H84.3c-.1 0 0 0 0 0h-.1c0-.1-.1 0-.2 0h.1c0 .1.1 0 .1 0h-.4c-.1.1-.2 0-.3.1 0 0 0 .1-.1 0h-.1l-.1-.1-.3-.5.3.5-.3-.5h.4-.2.5-.2H83.7c.2 0 .4.1.6 0h-.2c.1 0 .1 0 .2-.1h-.1.4s0-.1.1 0h.1s0-.1 0 0c0 0 .1 0 0 0h.4c0 .1 0 .2-.1.2H85h.1s0 .1-.1.1c-.1.2-.1.2-.1.3-.1 0-.1 0 0 0-.1 0 0 0 0 0s0-.1 0 0c.1 0-.1 0 0 0 0 .1-.1.2-.2.1h-.2.1c-.2 0-.4.1-.6.1H83.4h.4-1.2l.1-.4c0-.1.1-.2.1-.2.1 0 .1-.1.2-.1s.2-.1.3-.1h-.1H83.8c.1 0 .3-.1.5-.1h.4c0 .1 0 0-.1 0h.2-.1.2-.1l.1.1h-.1c.1.1.2.1.3.1 0 0 0 .1.1.1 0 .1 0 .1.1.1h-.1.2-.1c-.3.2-.4.2-.4.3 0-.1 0-.1 0 0 0-.1 0-.1 0 0 0-.1 0-.1 0 0m-.4-.5s.1 0 0 0c.1 0 0-.1 0 0m0 .6s-.1 0 0 0m0-.1c-.1 0-.1 0 0 0-.1 0-.1 0 0 0m0 0c0-.1-.1-.1 0 0-.1 0 0 0 0 0M84.8 251.9c0 .1 0 0 0 0m-.7.1s-.1 0 0 0m-.2 0c.1 0 .1 0 0 0 .1 0 .1 0 0 0m.5-.5c.1 0 .1 0 0 0 .1 0 0 0 0 0m.4 0c-.1 0 0 0 0 0-.1 0-.1 0 0 0-.1 0 0 0 0 0M84.6 252s.1 0 0 0c.1 0 0 0 0 0m.3-.1c-.1 0-.1.1 0 0M84.8 252s-.1 0 0 0c-.1-.1-.1 0-.1 0h.1c-.1 0 0 0 0 0 0 .1 0 0 0 0m-1.3-.6c.1 0 0 0 0 0M83.4 252.1c0 .1.1.1 0 0 .1.1.1.1 0 0 .1.1.1.1 0 0 .1.1 0 .1 0 0 0 0 .1.1 0 0 .1.1.1.1 0 0 .1.1.1.1 0 0 .1.1.1.1 0 0h.1c0 .1 0 .1-.1 0 .1.1.1.1 0 0 .1.1.1.1 0 0 .1.1 0 0 0 0m1.8-.2c-.1 0 0 0 0 0m-.5-.5s.1 0 0 0c.1 0 .1 0 0 0m.3.1s-.1-.1 0 0c-.1-.1 0 0 0 0m-.6-.2c.1 0 0 0 0 0h.1-.1c.1 0 0 0 0 0M82.9 252.4s.1 0 0 0m0 0c0-.1 0 0 0 0m0 0c.1 0 .1 0 0 0 .1 0 0 0 0 0 .1 0 0 0 0 0m0 0c-.1 0 0 0 0 0-.1 0-.1 0 0 0-.1 0-.1 0 0 0m0 0c0 .1 0 0 0 0m.1.1zm0 0s.1 0 0 0m.2.2s0-.1 0 0c0-.1 0-.1 0 0m.1 0c-.1 0-.1 0 0 0 0-.1-.1 0 0 0m-.5-.2c-.1 0 0-.1 0 0 0-.1 0 0 0 0m.4.1c-.1 0-.1 0 0 0-.1 0 0 0 0 0m-.6-.2c0 .1 0 .1 0 0m.6.8c0 .1 0 0 0 0m-.8-.3c.1 0 0 0 0 0m0 0c0 .1 0 .1 0 0m0 .1c.1 0 0 0 0 0m.6.3c0 .1 0 0 0 0m0 0s0 .1 0 0m-.4-.2c0 .1 0 0 0 0M82.8 252.5c0-.1 0-.1 0 0 0-.1 0-.1 0 0 0-.1 0-.1 0 0 0-.1 0-.1 0 0 0-.1 0-.1 0 0 0-.1 0-.1 0 0 0 0 0-.1 0 0 0-.1 0 0 0 0 0-.1 0 0 0 0 0-.1 0-.1 0 0 .1-.1.1-.1 0 0 .1-.1.1-.1 0 0 0 0 .1-.1 0 0h.2v.1s0 .1.1.1 0 0 .1.1h.1v.1s0 .1.1.1h.1s.1 0 0 0c0 0-.1 0-.1.1h-.1s-.1 0 0 0c0 0-.1.1-.1 0h-.1.1-.2v-.2s0-.1 0 0v-.2c-.3-.2-.3-.2-.2-.2 0 0-.1 0 0 0-.1 0-.1 0 0 0-.1 0-.1 0 0 0M82.9 253.3c-.1 0 0 0 0 0-.1 0-.1 0 0 0m-.2 0c.1 0 .1 0 0 0 .1 0 .1 0 0 0M82.9 252.6c.1 0 .1 0 0 0 .1 0 .1 0 0 0m.5.5s-.1 0 0 0m-.9 0s0-.1 0 0m.5.2s-.1 0 0 0m-.2 0s0-.1 0 0c0-.1 0-.1 0 0m.1.1s0-.1 0 0c0-.1 0-.1 0 0 0-.1 0-.1 0 0 0-.1 0 0 0 0-.1 0-.1 0 0 0M82.8 252.4c0 .1 0 0 0 0 0 .1 0 0 0 0 0 .1 0 .1 0 0m.4.2s0 .1 0 0c0 0 0 .1 0 0m-.5-.1c-.1 0 0 0 0 0m.7.4s-.1 0 0 0m-.9 0c0-.1 0 0 0 0-.1 0 0 0 0 0m-.1.1s0 .1 0 0c0 .1 0 .1 0 0 0 0 0 .1 0 0 0 0 0 .1 0 0" class="st2"/></g><use xlink:href="#MASK_00000061452816749322602500000004443747164800648586_" style="overflow:visible;fill:none;stroke:#1d1d1b;stroke-width:.5;stroke-miterlimit:10"/></g><g id="AILETTES"><path d="m400.2 223.2-32.3 7.8c4.7 5.9 9.1 11.4 12.7 15.8l44.9-6.4-25.3-17.2zM367.4 200.8l-17.6 7.2c3.7 4.8 7.6 9.8 11.5 14.6l26.6-7.9-20.5-13.9zM337.3 180.3l-6.2 3.9c3.2 4.1 7.4 9.5 12.1 15.6l13.2-6.3-19.1-13.2zM119.4 240.2l44.9 6.6c3.7-4.4 8.1-9.9 12.8-15.8l-32.3-8-25.4 17.2zM157.1 214.7l26.5 8c3.9-4.8 7.8-9.8 11.6-14.6l-17.6-7.3-20.5 13.9zM188.5 193.5l13.2 6.4c4.8-6 9-11.5 12.2-15.5l-6.1-3.9-19.3 13z" class="st14"/></g><path id="COL_x5F_BACK" d="M856.8 155.5c-4.6.2-28.6 5.1-49.5 4.9-21-.2-52.1-5.9-53.1-4.9-.7.7-6.7 4.5-9.2 7.9l1.7 1.2c2 1.5 15.4 4.7 15.4 4.7 27.9 6.9 52.2 5.6 89.8-.6 0 0 15.2-4.8 15.5-4.7-2-2.6-6-8.7-10.6-8.5z" style="fill:#558aff;stroke:#1d1d1b;stroke-width:.5;stroke-miterlimit:10"/><path id="COL_x5F_FRONT" d="M331.9 163.6c-2.2-2.6-5.4-8.4-10-8.2-4.6.2-28.6 5.1-49.5 4.9s-52.1-5.9-53.1-4.9-10.1 7.8-9.6 11.4c.5 3.6 1 13.8 22 27.3s27.8 17.1 40.3 17.1c0 0 17.1-.3 37.7-15.4 20.7-15.2 22.3-23.9 22.3-23.9s2-5.7-.1-8.3zm-60.2 32.1c-11.1 0-41.4-23.1-41.4-23.1s26.2 4.5 41.6 4.4c15.4-.1 40.2-4.3 40.2-4.3s-29.2 23-40.4 23z" style="fill:#39c7ff;stroke:#1d1d1b;stroke-width:.5;stroke-miterlimit:10"/><path id="LOGO_x5F_GROUPAMA_x5F_FRONT" d="M271.6 297.6c18 0 27.3-14.4 27.2-26.8h-23.5l3.9 6.8h10.9c-1 4-6.5 12.5-18.2 12.5-10.5 0-19.1-8.7-19.1-18.9 0-10.1 8.2-18.9 19.1-18.9 7.7 0 14.9 4.7 18 11.6h8.1c-3.5-12.4-14.4-19.2-26.4-19.2-14.6 0-26.5 11.9-26.5 26.5 0 14.5 11.9 26.4 26.5 26.4zm-27.1 15.8c0 2.8 2 5.5 5.5 5.5 3.3 0 5.5-2.4 5.5-5.5 0-3-2-5.5-5.5-5.5-3.7 0-5.5 3-5.5 5.5zm8.4 0c0 1.7-1.2 3.2-2.9 3.2s-2.9-1.5-2.9-3.2c0-1.7 1.2-3.2 2.9-3.2 1.8.1 2.9 1.6 2.9 3.2zm18.5-56.1-3.5 13.5h-5.8l-3.9 6.8h13.2l3.9-6.8-3.5-13.5h-.4zm-35.2 55.5c0-.1 0-1.1-.1-1.5h-6l1.2 2.5h2.1c0 1.7-1.9 2.7-3.4 2.7-2.5 0-4.7-2.2-4.7-4.7 0-3.2 2.6-4.6 4.6-4.6 1.4 0 2.7.7 3.7 1.7l1.7-1.8c-1.2-1.6-3.4-2.4-5.4-2.4-4.3 0-7.4 3.2-7.4 7.2 0 3.1 2.2 7.2 7.3 7.2 2.6-.2 6.4-1.9 6.4-6.3zm7.8-1.8.7-2.8h-.1c-.8-.3-1.9-.3-2.7.2-.6.3-1.2.8-1.6 1.4v-1.6h-2.6v10.6h2.6v-5.6c0-.7.2-1.3.7-1.7 1.2-1.3 2.6-.7 3-.5zm44.5-1.5c-.8-1-2-1.5-3.2-1.5-2.9 0-5 2.6-4.9 5.5-.1 2.8 1.9 5.5 4.7 5.5 1.3 0 2.5-.6 3.4-1.5v1.3h2.6v-10.6h-2.6v1.3zm-2.7 7.1c-1.7 0-2.8-1.5-2.8-3.2 0-1.7 1-3.2 2.8-3.2 1.7 0 2.8 1.5 2.8 3.2 0 1.7-1.1 3.2-2.8 3.2zm19.9-8.6c-1.4 0-2.8.8-3.5 2-.5-1.3-1.7-2-3.1-2-1.2 0-2.4.6-3.1 1.5v-1.3h-2.6v10.6h2.6v-6.3c0-1.2 1.1-2.1 2.3-2.1 1.3 0 1.8 1 1.8 2.2v6.2h2.6v-6.3c0-1.2 1.1-2.2 2.3-2.1 1.3-.1 1.9 1 1.8 2.2v6.2h2.6v-6.4c-.2-3.8-2.1-4.4-3.7-4.4zm13.1.2v1.3c-.8-1-2-1.5-3.2-1.5-2.9 0-5 2.6-4.9 5.5-.1 2.8 1.9 5.5 4.7 5.5 1.3 0 2.5-.6 3.4-1.5v1.3h2.6v-10.6h-2.6zm-2.8 8.4c-1.7 0-2.8-1.5-2.8-3.2 0-1.7 1-3.2 2.8-3.2 1.7 0 2.8 1.5 2.8 3.2.1 1.7-1 3.2-2.8 3.2zm-52-2.1c0 1.3-1 2.3-2.3 2.2-1.4 0-2.2-.9-2.1-2.6v-6H257v6.5c0 4.3 3.6 4.8 5.4 3.9.6-.3 1.2-.7 1.6-1.2v1.4h2.5v-10.6H264v6.4zm15.4-1.1c0-3.4-1.9-5.4-4.9-5.5-1.2 0-2.4.5-3.2 1.4v-1.2h-2.6v14.1h2.6v-4.7c.8.8 2.1 1.3 3.2 1.3 3 .1 5-2.5 4.9-5.4zm-5.3 3.2c-1.7 0-2.8-1.5-2.8-3.2 0-1.7 1.1-3.2 2.8-3.1 1.7 0 2.8 1.5 2.8 3.1 0 1.7-1.1 3.2-2.8 3.2z" class="st17"/><path id="LOGO_x5F_GROUPMA_x5F_BACK" d="M806 274.2c22.8 0 34.6-18.2 34.4-34h-29.7l4.9 8.6h13.8c-1.2 5.1-8.2 15.8-23 15.8-13.3 0-24.2-11-24.2-23.9 0-12.7 10.4-23.9 24.2-23.9 9.7 0 18.9 6 22.8 14.7h10.2c-4.4-15.6-18.2-24.4-33.4-24.4-18.5 0-33.5 15-33.5 33.5s15 33.6 33.5 33.6zm-34.3 20.1c0 3.6 2.5 7 7 7 4.1 0 7-3 7-7 0-3.8-2.6-7-7-7-4.8 0-7 3.7-7 7zm10.6 0c0 2.1-1.5 4-3.7 4s-3.7-1.9-3.7-4 1.5-4 3.7-4 3.8 1.8 3.7 4zm23.5-71.2-4.4 17.1H794l-4.9 8.6h16.7l4.9-8.6-4.4-17.1h-.5zm-44.7 70.3c0-.2 0-1.4-.1-1.9h-7.6l1.5 3.1h2.7c-.1 2.2-2.4 3.4-4.4 3.4-3.2 0-5.9-2.7-5.9-5.9 0-4 3.3-5.8 5.8-5.8 1.8 0 3.4.9 4.6 2.1l2.2-2.3c-1.6-2-4.2-3.1-6.8-3.1-5.5 0-9.3 4.1-9.3 9.1 0 4 2.8 9.2 9.3 9.1 3.3 0 8.1-2.2 8-7.8zm9.9-2.2.9-3.6h-.1c-1.1-.4-2.4-.3-3.4.2-.8.4-1.5 1-2 1.8v-2h-3.2V301h3.3v-7.1c0-.9.3-1.6.9-2.2 1.4-1.5 3.1-.8 3.6-.5zm56.4-2c-1-1.3-2.5-1.9-4.1-1.9-3.7-.1-6.3 3.3-6.2 6.9-.1 3.5 2.4 7 6 7 1.6 0 3.2-.7 4.3-1.9v1.7h3.3v-13.4h-3.3v1.6zm-3.4 9.1c-2.2 0-3.5-1.9-3.5-4.1 0-2.1 1.3-4 3.5-4s3.6 1.9 3.6 4c-.1 2.2-1.4 4.1-3.6 4.1zm25.1-10.9c-1.7 0-3.6 1-4.5 2.5-.6-1.7-2.2-2.5-4-2.5-1.5 0-3 .8-3.9 1.9v-1.7h-3.2V301h3.3v-8c0-1.6 1.4-2.7 2.9-2.7 1.6 0 2.3 1.3 2.3 2.8v7.9h3.3v-8c0-1.6 1.4-2.8 2.9-2.7 1.7-.1 2.4 1.3 2.3 2.8v7.9h3.3v-8.1c-.1-4.8-2.6-5.6-4.7-5.5zm16.6.2v1.6c-1-1.3-2.5-1.9-4.1-1.9-3.7-.1-6.3 3.3-6.2 6.9-.1 3.5 2.4 7 6 7 1.6 0 3.2-.7 4.3-1.9v1.7h3.3v-13.4h-3.3zm-3.4 10.7c-2.2 0-3.5-1.9-3.5-4.1 0-2.1 1.3-4 3.5-4s3.6 1.9 3.6 4c-.1 2.2-1.4 4.1-3.6 4.1zm-65.9-2.7c0 1.6-1.3 2.9-2.9 2.8-1.8 0-2.8-1.2-2.7-3.2v-7.6h-3.3v8.2c0 5.4 4.5 6 6.9 5 .8-.4 1.5-.9 2-1.6v1.8h3.2v-13.4h-3.3v8zm19.5-1.3c0-4.3-2.4-6.9-6.2-6.9-1.5 0-3.1.7-4.1 1.8v-1.5h-3.2v17.9h3.3v-5.9c1 1 2.6 1.7 4.1 1.7 3.7-.2 6.2-3.6 6.1-7.1zm-6.7 4c-2.2 0-3.6-1.9-3.6-4s1.4-4 3.6-4 3.5 1.9 3.5 4-1.3 4-3.5 4z" class="st17"/><path id="MANCHE_x5F_DROITE_x5F_FRONT" d="M15.6 298.4c7.5 16.8 20.3 36 38 50 1.7-.7 3.3-1.5 5-2.5 2.4-1.1 15.2-8.3 28-15.2-11.2-23.4-29.2-73-29.2-73-1 .7-2.2 1.4-3.5 2.1-7.6 4-23.7 18.8-38.3 38.6" class="st18"/><path id="MANCHE_x5F_GAUCHE_x5F_FRONT" d="M457.1 330.2c11.2-23.4 29.2-73 29.2-73 1 .7 2.2 1.4 3.5 2.1 7.7 4.1 23.7 18.9 38.3 38.7-7.5 16.8-20.3 36-38 50-1.7-.7-3.3-1.5-5-2.5-2.4-1.2-15.1-8.4-28-15.3z" class="st18"/><path id="MANCHE_x5F_GAUCHE_x5F_BACK" d="M587.5 259.1c1.2-.6 2.2-1.2 3.2-1.9 1.2 3.3 18.4 50.5 29.2 73-12.7 6.9-25.3 14-27.7 15-1.7 1-3.4 1.8-5 2.5-17.6-14-30.4-33.2-38-50 14.5-19.7 30.6-34.4 38.3-38.6z" class="st18"/><path id="MANCHE_x5F_DROITE_x5F_BACK" d="M1022.9 258.3c-1.2-.6-2.2-1.2-3.2-1.9-1.2 3.3-18.9 51.1-29.8 73.6 12.9 6.9 25.9 14.3 28.3 15.4 1.7 1 3.4 1.8 5 2.5 17.8-14 30.9-34.1 38.5-50.9-14.7-19.8-31-34.6-38.8-38.7z" class="st18"/></g><path id="Calque_2" d="M.1 0h1079.7v723H.1z" class="st1"/></svg>
